<svg width="1363" height="163" viewBox="0 0 1363 163" fill="none" xmlns="http://www.w3.org/2000/svg">
<path d="M0 15C0 6.71573 6.71573 0 15 0H37V163H15C6.71573 163 0 156.284 0 148V15Z" fill="#F25B5F"/>
<rect width="1097" height="163" transform="translate(37)" fill="#F0F0F0"/>
<path d="M101.906 53.9219L94.3945 51.2383V48.0859L104.602 52.375V54.6367L101.906 53.9219ZM94.3945 56.1719L101.918 53.4297L104.602 52.7852V55.0352L94.3945 59.3242V56.1719ZM119.836 46.8555L115.195 61H111.457L117.797 43.9375H120.176L119.836 46.8555ZM123.691 61L119.039 46.8555L118.664 43.9375H121.066L127.441 61H123.691ZM123.48 54.6484V57.4023H114.469V54.6484H123.48ZM132.375 48.3203V61H128.988V48.3203H132.375ZM128.777 45.0156C128.777 44.5234 128.949 44.1172 129.293 43.7969C129.637 43.4766 130.098 43.3164 130.676 43.3164C131.246 43.3164 131.703 43.4766 132.047 43.7969C132.398 44.1172 132.574 44.5234 132.574 45.0156C132.574 45.5078 132.398 45.9141 132.047 46.2344C131.703 46.5547 131.246 46.7148 130.676 46.7148C130.098 46.7148 129.637 46.5547 129.293 46.2344C128.949 45.9141 128.777 45.5078 128.777 45.0156ZM138.539 51.0859V61H135.164V48.3203H138.34L138.539 51.0859ZM142.359 48.2383L142.301 51.3672C142.137 51.3438 141.938 51.3242 141.703 51.3086C141.477 51.2852 141.27 51.2734 141.082 51.2734C140.605 51.2734 140.191 51.3359 139.84 51.4609C139.496 51.5781 139.207 51.7539 138.973 51.9883C138.746 52.2227 138.574 52.5078 138.457 52.8438C138.348 53.1797 138.285 53.5625 138.27 53.9922L137.59 53.7812C137.59 52.9609 137.672 52.207 137.836 51.5195C138 50.8242 138.238 50.2188 138.551 49.7031C138.871 49.1875 139.262 48.7891 139.723 48.5078C140.184 48.2266 140.711 48.0859 141.305 48.0859C141.492 48.0859 141.684 48.1016 141.879 48.1328C142.074 48.1562 142.234 48.1914 142.359 48.2383ZM143.953 43H147.328V58.0938L146.988 61H143.953V43ZM155.355 54.5312V54.7773C155.355 55.7227 155.254 56.5898 155.051 57.3789C154.855 58.168 154.551 58.8516 154.137 59.4297C153.723 60 153.207 60.4453 152.59 60.7656C151.98 61.0781 151.262 61.2344 150.434 61.2344C149.66 61.2344 148.988 61.0781 148.418 60.7656C147.855 60.4531 147.383 60.0117 147 59.4414C146.617 58.8711 146.309 58.2031 146.074 57.4375C145.84 56.6719 145.664 55.8359 145.547 54.9297V54.3906C145.664 53.4844 145.84 52.6484 146.074 51.8828C146.309 51.1172 146.617 50.4492 147 49.8789C147.383 49.3086 147.855 48.8672 148.418 48.5547C148.98 48.2422 149.645 48.0859 150.41 48.0859C151.246 48.0859 151.973 48.2461 152.59 48.5664C153.215 48.8789 153.73 49.3242 154.137 49.9023C154.551 50.4727 154.855 51.1523 155.051 51.9414C155.254 52.7227 155.355 53.5859 155.355 54.5312ZM151.98 54.7773V54.5312C151.98 54.0156 151.941 53.5312 151.863 53.0781C151.793 52.6172 151.668 52.2148 151.488 51.8711C151.309 51.5195 151.062 51.2422 150.75 51.0391C150.445 50.8359 150.051 50.7344 149.566 50.7344C149.105 50.7344 148.715 50.8125 148.395 50.9688C148.074 51.125 147.809 51.3438 147.598 51.625C147.395 51.9062 147.242 52.2422 147.141 52.6328C147.039 53.0156 146.977 53.4375 146.953 53.8984V55.4336C146.977 56.0508 147.078 56.5977 147.258 57.0742C147.445 57.543 147.727 57.9141 148.102 58.1875C148.484 58.4531 148.98 58.5859 149.59 58.5859C150.066 58.5859 150.461 58.4922 150.773 58.3047C151.086 58.1172 151.328 57.8516 151.5 57.5078C151.68 57.1641 151.805 56.7617 151.875 56.3008C151.945 55.832 151.98 55.3242 151.98 54.7773ZM160.758 51.0273V61H157.383V48.3203H160.547L160.758 51.0273ZM160.266 54.2148H159.352C159.352 53.2773 159.473 52.4336 159.715 51.6836C159.957 50.9258 160.297 50.2812 160.734 49.75C161.172 49.2109 161.691 48.8008 162.293 48.5195C162.902 48.2305 163.582 48.0859 164.332 48.0859C164.926 48.0859 165.469 48.1719 165.961 48.3438C166.453 48.5156 166.875 48.7891 167.227 49.1641C167.586 49.5391 167.859 50.0352 168.047 50.6523C168.242 51.2695 168.34 52.0234 168.34 52.9141V61H164.941V52.9023C164.941 52.3398 164.863 51.9023 164.707 51.5898C164.551 51.2773 164.32 51.0586 164.016 50.9336C163.719 50.8008 163.352 50.7344 162.914 50.7344C162.461 50.7344 162.066 50.8242 161.73 51.0039C161.402 51.1836 161.129 51.4336 160.91 51.7539C160.699 52.0664 160.539 52.4336 160.43 52.8555C160.32 53.2773 160.266 53.7305 160.266 54.2148ZM170.906 43H174.281V58.0938L173.941 61H170.906V43ZM182.309 54.5312V54.7773C182.309 55.7227 182.207 56.5898 182.004 57.3789C181.809 58.168 181.504 58.8516 181.09 59.4297C180.676 60 180.16 60.4453 179.543 60.7656C178.934 61.0781 178.215 61.2344 177.387 61.2344C176.613 61.2344 175.941 61.0781 175.371 60.7656C174.809 60.4531 174.336 60.0117 173.953 59.4414C173.57 58.8711 173.262 58.2031 173.027 57.4375C172.793 56.6719 172.617 55.8359 172.5 54.9297V54.3906C172.617 53.4844 172.793 52.6484 173.027 51.8828C173.262 51.1172 173.57 50.4492 173.953 49.8789C174.336 49.3086 174.809 48.8672 175.371 48.5547C175.934 48.2422 176.598 48.0859 177.363 48.0859C178.199 48.0859 178.926 48.2461 179.543 48.5664C180.168 48.8789 180.684 49.3242 181.09 49.9023C181.504 50.4727 181.809 51.1523 182.004 51.9414C182.207 52.7227 182.309 53.5859 182.309 54.5312ZM178.934 54.7773V54.5312C178.934 54.0156 178.895 53.5312 178.816 53.0781C178.746 52.6172 178.621 52.2148 178.441 51.8711C178.262 51.5195 178.016 51.2422 177.703 51.0391C177.398 50.8359 177.004 50.7344 176.52 50.7344C176.059 50.7344 175.668 50.8125 175.348 50.9688C175.027 51.125 174.762 51.3438 174.551 51.625C174.348 51.9062 174.195 52.2422 174.094 52.6328C173.992 53.0156 173.93 53.4375 173.906 53.8984V55.4336C173.93 56.0508 174.031 56.5977 174.211 57.0742C174.398 57.543 174.68 57.9141 175.055 58.1875C175.438 58.4531 175.934 58.5859 176.543 58.5859C177.02 58.5859 177.414 58.4922 177.727 58.3047C178.039 58.1172 178.281 57.8516 178.453 57.5078C178.633 57.1641 178.758 56.7617 178.828 56.3008C178.898 55.832 178.934 55.3242 178.934 54.7773ZM197.531 46.8555L192.891 61H189.152L195.492 43.9375H197.871L197.531 46.8555ZM201.387 61L196.734 46.8555L196.359 43.9375H198.762L205.137 61H201.387ZM201.176 54.6484V57.4023H192.164V54.6484H201.176ZM209.438 51.0273V61H206.062V48.3203H209.227L209.438 51.0273ZM208.945 54.2148H208.031C208.031 53.2773 208.152 52.4336 208.395 51.6836C208.637 50.9258 208.977 50.2812 209.414 49.75C209.852 49.2109 210.371 48.8008 210.973 48.5195C211.582 48.2305 212.262 48.0859 213.012 48.0859C213.605 48.0859 214.148 48.1719 214.641 48.3438C215.133 48.5156 215.555 48.7891 215.906 49.1641C216.266 49.5391 216.539 50.0352 216.727 50.6523C216.922 51.2695 217.02 52.0234 217.02 52.9141V61H213.621V52.9023C213.621 52.3398 213.543 51.9023 213.387 51.5898C213.23 51.2773 213 51.0586 212.695 50.9336C212.398 50.8008 212.031 50.7344 211.594 50.7344C211.141 50.7344 210.746 50.8242 210.41 51.0039C210.082 51.1836 209.809 51.4336 209.59 51.7539C209.379 52.0664 209.219 52.4336 209.109 52.8555C209 53.2773 208.945 53.7305 208.945 54.2148ZM226.43 58.1406V52.4922C226.43 52.0859 226.363 51.7383 226.23 51.4492C226.098 51.1523 225.891 50.9219 225.609 50.7578C225.336 50.5938 224.98 50.5117 224.543 50.5117C224.168 50.5117 223.844 50.5781 223.57 50.7109C223.297 50.8359 223.086 51.0195 222.938 51.2617C222.789 51.4961 222.715 51.7734 222.715 52.0938H219.34C219.34 51.5547 219.465 51.043 219.715 50.5586C219.965 50.0742 220.328 49.6484 220.805 49.2812C221.281 48.9062 221.848 48.6133 222.504 48.4023C223.168 48.1914 223.91 48.0859 224.73 48.0859C225.715 48.0859 226.59 48.25 227.355 48.5781C228.121 48.9062 228.723 49.3984 229.16 50.0547C229.605 50.7109 229.828 51.5312 229.828 52.5156V57.9414C229.828 58.6367 229.871 59.207 229.957 59.6523C230.043 60.0898 230.168 60.4727 230.332 60.8008V61H226.922C226.758 60.6562 226.633 60.2266 226.547 59.7109C226.469 59.1875 226.43 58.6641 226.43 58.1406ZM226.875 53.2773L226.898 55.1875H225.012C224.566 55.1875 224.18 55.2383 223.852 55.3398C223.523 55.4414 223.254 55.5859 223.043 55.7734C222.832 55.9531 222.676 56.1641 222.574 56.4062C222.48 56.6484 222.434 56.9141 222.434 57.2031C222.434 57.4922 222.5 57.7539 222.633 57.9883C222.766 58.2148 222.957 58.3945 223.207 58.5273C223.457 58.6523 223.75 58.7148 224.086 58.7148C224.594 58.7148 225.035 58.6133 225.41 58.4102C225.785 58.207 226.074 57.957 226.277 57.6602C226.488 57.3633 226.598 57.082 226.605 56.8164L227.496 58.2461C227.371 58.5664 227.199 58.8984 226.98 59.2422C226.77 59.5859 226.5 59.9102 226.172 60.2148C225.844 60.5117 225.449 60.7578 224.988 60.9531C224.527 61.1406 223.98 61.2344 223.348 61.2344C222.543 61.2344 221.812 61.0742 221.156 60.7539C220.508 60.4258 219.992 59.9766 219.609 59.4062C219.234 58.8281 219.047 58.1719 219.047 57.4375C219.047 56.7734 219.172 56.1836 219.422 55.668C219.672 55.1523 220.039 54.7188 220.523 54.3672C221.016 54.0078 221.629 53.7383 222.363 53.5586C223.098 53.3711 223.949 53.2773 224.918 53.2773H226.875ZM235.992 43V61H232.605V43H235.992ZM242.543 59.5703L245.906 48.3203H249.527L244.43 62.9102C244.32 63.2305 244.172 63.5742 243.984 63.9414C243.805 64.3086 243.559 64.6562 243.246 64.9844C242.941 65.3203 242.555 65.5938 242.086 65.8047C241.625 66.0156 241.059 66.1211 240.387 66.1211C240.066 66.1211 239.805 66.1016 239.602 66.0625C239.398 66.0234 239.156 65.9688 238.875 65.8984V63.4258C238.961 63.4258 239.051 63.4258 239.145 63.4258C239.238 63.4336 239.328 63.4375 239.414 63.4375C239.859 63.4375 240.223 63.3867 240.504 63.2852C240.785 63.1836 241.012 63.0273 241.184 62.8164C241.355 62.6133 241.492 62.3477 241.594 62.0195L242.543 59.5703ZM241.137 48.3203L243.891 57.5078L244.371 61.082L242.074 61.3281L237.516 48.3203H241.137ZM257.73 57.4961C257.73 57.2539 257.66 57.0352 257.52 56.8398C257.379 56.6445 257.117 56.4648 256.734 56.3008C256.359 56.1289 255.816 55.9727 255.105 55.832C254.465 55.6914 253.867 55.5156 253.312 55.3047C252.766 55.0859 252.289 54.8242 251.883 54.5195C251.484 54.2148 251.172 53.8555 250.945 53.4414C250.719 53.0195 250.605 52.5391 250.605 52C250.605 51.4688 250.719 50.9688 250.945 50.5C251.18 50.0312 251.512 49.6172 251.941 49.2578C252.379 48.8906 252.91 48.6055 253.535 48.4023C254.168 48.1914 254.879 48.0859 255.668 48.0859C256.77 48.0859 257.715 48.2617 258.504 48.6133C259.301 48.9648 259.91 49.4492 260.332 50.0664C260.762 50.6758 260.977 51.3711 260.977 52.1523H257.602C257.602 51.8242 257.531 51.5312 257.391 51.2734C257.258 51.0078 257.047 50.8008 256.758 50.6523C256.477 50.4961 256.109 50.418 255.656 50.418C255.281 50.418 254.957 50.4844 254.684 50.6172C254.41 50.7422 254.199 50.9141 254.051 51.1328C253.91 51.3438 253.84 51.5781 253.84 51.8359C253.84 52.0312 253.879 52.207 253.957 52.3633C254.043 52.5117 254.18 52.6484 254.367 52.7734C254.555 52.8984 254.797 53.0156 255.094 53.125C255.398 53.2266 255.773 53.3203 256.219 53.4062C257.133 53.5938 257.949 53.8398 258.668 54.1445C259.387 54.4414 259.957 54.8477 260.379 55.3633C260.801 55.8711 261.012 56.5391 261.012 57.3672C261.012 57.9297 260.887 58.4453 260.637 58.9141C260.387 59.3828 260.027 59.793 259.559 60.1445C259.09 60.4883 258.527 60.7578 257.871 60.9531C257.223 61.1406 256.492 61.2344 255.68 61.2344C254.5 61.2344 253.5 61.0234 252.68 60.6016C251.867 60.1797 251.25 59.6445 250.828 58.9961C250.414 58.3398 250.207 57.668 250.207 56.9805H253.406C253.422 57.4414 253.539 57.8125 253.758 58.0938C253.984 58.375 254.27 58.5781 254.613 58.7031C254.965 58.8281 255.344 58.8906 255.75 58.8906C256.188 58.8906 256.551 58.832 256.84 58.7148C257.129 58.5898 257.348 58.4258 257.496 58.2227C257.652 58.0117 257.73 57.7695 257.73 57.4961ZM266.766 48.3203V61H263.379V48.3203H266.766ZM263.168 45.0156C263.168 44.5234 263.34 44.1172 263.684 43.7969C264.027 43.4766 264.488 43.3164 265.066 43.3164C265.637 43.3164 266.094 43.4766 266.438 43.7969C266.789 44.1172 266.965 44.5234 266.965 45.0156C266.965 45.5078 266.789 45.9141 266.438 46.2344C266.094 46.5547 265.637 46.7148 265.066 46.7148C264.488 46.7148 264.027 46.5547 263.684 46.2344C263.34 45.9141 263.168 45.5078 263.168 45.0156ZM276.41 57.4961C276.41 57.2539 276.34 57.0352 276.199 56.8398C276.059 56.6445 275.797 56.4648 275.414 56.3008C275.039 56.1289 274.496 55.9727 273.785 55.832C273.145 55.6914 272.547 55.5156 271.992 55.3047C271.445 55.0859 270.969 54.8242 270.562 54.5195C270.164 54.2148 269.852 53.8555 269.625 53.4414C269.398 53.0195 269.285 52.5391 269.285 52C269.285 51.4688 269.398 50.9688 269.625 50.5C269.859 50.0312 270.191 49.6172 270.621 49.2578C271.059 48.8906 271.59 48.6055 272.215 48.4023C272.848 48.1914 273.559 48.0859 274.348 48.0859C275.449 48.0859 276.395 48.2617 277.184 48.6133C277.98 48.9648 278.59 49.4492 279.012 50.0664C279.441 50.6758 279.656 51.3711 279.656 52.1523H276.281C276.281 51.8242 276.211 51.5312 276.07 51.2734C275.938 51.0078 275.727 50.8008 275.438 50.6523C275.156 50.4961 274.789 50.418 274.336 50.418C273.961 50.418 273.637 50.4844 273.363 50.6172C273.09 50.7422 272.879 50.9141 272.73 51.1328C272.59 51.3438 272.52 51.5781 272.52 51.8359C272.52 52.0312 272.559 52.207 272.637 52.3633C272.723 52.5117 272.859 52.6484 273.047 52.7734C273.234 52.8984 273.477 53.0156 273.773 53.125C274.078 53.2266 274.453 53.3203 274.898 53.4062C275.812 53.5938 276.629 53.8398 277.348 54.1445C278.066 54.4414 278.637 54.8477 279.059 55.3633C279.48 55.8711 279.691 56.5391 279.691 57.3672C279.691 57.9297 279.566 58.4453 279.316 58.9141C279.066 59.3828 278.707 59.793 278.238 60.1445C277.77 60.4883 277.207 60.7578 276.551 60.9531C275.902 61.1406 275.172 61.2344 274.359 61.2344C273.18 61.2344 272.18 61.0234 271.359 60.6016C270.547 60.1797 269.93 59.6445 269.508 58.9961C269.094 58.3398 268.887 57.668 268.887 56.9805H272.086C272.102 57.4414 272.219 57.8125 272.438 58.0938C272.664 58.375 272.949 58.5781 273.293 58.7031C273.645 58.8281 274.023 58.8906 274.43 58.8906C274.867 58.8906 275.23 58.832 275.52 58.7148C275.809 58.5898 276.027 58.4258 276.176 58.2227C276.332 58.0117 276.41 57.7695 276.41 57.4961Z" fill="#888888"/>
<path d="M112.125 84.875V119H103.898V84.875H112.125ZM122.391 84.875V91.2266H93.8672V84.875H122.391ZM135.68 119.469C133.617 119.469 131.773 119.148 130.148 118.508C128.523 117.852 127.148 116.953 126.023 115.812C124.914 114.672 124.062 113.359 123.469 111.875C122.891 110.391 122.602 108.82 122.602 107.164V106.273C122.602 104.414 122.859 102.695 123.375 101.117C123.891 99.5234 124.656 98.1328 125.672 96.9453C126.688 95.7578 127.961 94.8359 129.492 94.1797C131.023 93.5078 132.805 93.1719 134.836 93.1719C136.633 93.1719 138.242 93.4609 139.664 94.0391C141.086 94.6172 142.289 95.4453 143.273 96.5234C144.273 97.6016 145.031 98.9062 145.547 100.438C146.078 101.969 146.344 103.688 146.344 105.594V108.805H125.625V103.859H138.633V103.25C138.648 102.406 138.5 101.688 138.188 101.094C137.891 100.5 137.453 100.047 136.875 99.7344C136.297 99.4219 135.594 99.2656 134.766 99.2656C133.906 99.2656 133.195 99.4531 132.633 99.8281C132.086 100.203 131.656 100.719 131.344 101.375C131.047 102.016 130.836 102.758 130.711 103.602C130.586 104.445 130.523 105.336 130.523 106.273V107.164C130.523 108.102 130.648 108.953 130.898 109.719C131.164 110.484 131.539 111.141 132.023 111.688C132.523 112.219 133.117 112.633 133.805 112.93C134.508 113.227 135.305 113.375 136.195 113.375C137.273 113.375 138.336 113.172 139.383 112.766C140.43 112.359 141.328 111.688 142.078 110.75L145.664 115.016C145.148 115.75 144.414 116.461 143.461 117.148C142.523 117.836 141.398 118.398 140.086 118.836C138.773 119.258 137.305 119.469 135.68 119.469ZM160.266 113.375C161 113.375 161.625 113.242 162.141 112.977C162.672 112.695 163.07 112.305 163.336 111.805C163.617 111.289 163.75 110.672 163.734 109.953H171.164C171.18 111.859 170.711 113.531 169.758 114.969C168.82 116.391 167.539 117.5 165.914 118.297C164.305 119.078 162.484 119.469 160.453 119.469C158.469 119.469 156.734 119.148 155.25 118.508C153.766 117.852 152.523 116.945 151.523 115.789C150.539 114.617 149.797 113.25 149.297 111.688C148.812 110.125 148.57 108.43 148.57 106.602V106.062C148.57 104.234 148.812 102.539 149.297 100.977C149.797 99.3984 150.539 98.0312 151.523 96.875C152.523 95.7031 153.758 94.7969 155.227 94.1562C156.711 93.5 158.438 93.1719 160.406 93.1719C162.516 93.1719 164.375 93.5703 165.984 94.3672C167.609 95.1641 168.883 96.3203 169.805 97.8359C170.727 99.3516 171.18 101.188 171.164 103.344H163.734C163.75 102.578 163.633 101.891 163.383 101.281C163.133 100.672 162.742 100.188 162.211 99.8281C161.695 99.4531 161.031 99.2656 160.219 99.2656C159.406 99.2656 158.75 99.4453 158.25 99.8047C157.75 100.164 157.367 100.664 157.102 101.305C156.852 101.93 156.68 102.648 156.586 103.461C156.508 104.273 156.469 105.141 156.469 106.062V106.602C156.469 107.539 156.508 108.422 156.586 109.25C156.68 110.062 156.859 110.781 157.125 111.406C157.391 112.016 157.773 112.5 158.273 112.859C158.773 113.203 159.438 113.375 160.266 113.375ZM182.273 83V119H174.375V83H182.273ZM181.336 105.453L179.484 105.5C179.484 103.719 179.703 102.078 180.141 100.578C180.578 99.0781 181.203 97.7734 182.016 96.6641C182.828 95.5547 183.805 94.6953 184.945 94.0859C186.086 93.4766 187.352 93.1719 188.742 93.1719C189.992 93.1719 191.133 93.3516 192.164 93.7109C193.211 94.0703 194.109 94.6484 194.859 95.4453C195.625 96.2422 196.211 97.2812 196.617 98.5625C197.039 99.8438 197.25 101.406 197.25 103.25V119H189.305V103.203C189.305 102.172 189.156 101.375 188.859 100.812C188.578 100.234 188.172 99.8359 187.641 99.6172C187.109 99.3828 186.461 99.2656 185.695 99.2656C184.773 99.2656 184.023 99.4219 183.445 99.7344C182.867 100.047 182.422 100.484 182.109 101.047C181.812 101.594 181.609 102.242 181.5 102.992C181.391 103.742 181.336 104.562 181.336 105.453ZM231.539 109.93C231.539 109.398 231.461 108.922 231.305 108.5C231.148 108.062 230.859 107.656 230.438 107.281C230.016 106.906 229.406 106.531 228.609 106.156C227.828 105.766 226.797 105.359 225.516 104.938C224.016 104.438 222.57 103.875 221.18 103.25C219.789 102.609 218.547 101.867 217.453 101.023C216.359 100.164 215.492 99.1641 214.852 98.0234C214.211 96.8672 213.891 95.5234 213.891 93.9922C213.891 92.5234 214.219 91.2031 214.875 90.0312C215.531 88.8438 216.445 87.8359 217.617 87.0078C218.805 86.1641 220.195 85.5234 221.789 85.0859C223.383 84.6328 225.125 84.4062 227.016 84.4062C229.516 84.4062 231.719 84.8438 233.625 85.7188C235.547 86.5781 237.047 87.8047 238.125 89.3984C239.219 90.9766 239.766 92.8438 239.766 95H231.586C231.586 94.1406 231.406 93.3828 231.047 92.7266C230.703 92.0703 230.18 91.5547 229.477 91.1797C228.773 90.8047 227.891 90.6172 226.828 90.6172C225.797 90.6172 224.93 90.7734 224.227 91.0859C223.523 91.3984 222.992 91.8203 222.633 92.3516C222.273 92.8672 222.094 93.4375 222.094 94.0625C222.094 94.5781 222.234 95.0469 222.516 95.4688C222.812 95.875 223.227 96.2578 223.758 96.6172C224.305 96.9766 224.961 97.3203 225.727 97.6484C226.508 97.9766 227.383 98.2969 228.352 98.6094C230.164 99.1875 231.773 99.8359 233.18 100.555C234.602 101.258 235.797 102.062 236.766 102.969C237.75 103.859 238.492 104.875 238.992 106.016C239.508 107.156 239.766 108.445 239.766 109.883C239.766 111.414 239.469 112.773 238.875 113.961C238.281 115.148 237.43 116.156 236.32 116.984C235.211 117.797 233.883 118.414 232.336 118.836C230.789 119.258 229.062 119.469 227.156 119.469C225.406 119.469 223.68 119.25 221.977 118.812C220.289 118.359 218.758 117.672 217.383 116.75C216.008 115.812 214.906 114.617 214.078 113.164C213.266 111.695 212.859 109.953 212.859 107.938H221.109C221.109 108.938 221.242 109.781 221.508 110.469C221.773 111.156 222.164 111.711 222.68 112.133C223.195 112.539 223.828 112.836 224.578 113.023C225.328 113.195 226.188 113.281 227.156 113.281C228.203 113.281 229.047 113.133 229.688 112.836C230.328 112.523 230.797 112.117 231.094 111.617C231.391 111.102 231.539 110.539 231.539 109.93ZM256.992 93.6406V99.125H241.711V93.6406H256.992ZM244.922 87.3359H252.82V110.727C252.82 111.398 252.898 111.922 253.055 112.297C253.211 112.656 253.477 112.914 253.852 113.07C254.242 113.211 254.758 113.281 255.398 113.281C255.852 113.281 256.227 113.273 256.523 113.258C256.82 113.227 257.102 113.188 257.367 113.141V118.789C256.695 119.008 255.992 119.172 255.258 119.281C254.523 119.406 253.742 119.469 252.914 119.469C251.227 119.469 249.781 119.203 248.578 118.672C247.391 118.141 246.484 117.305 245.859 116.164C245.234 115.023 244.922 113.539 244.922 111.711V87.3359ZM273.305 112.625V102.172C273.305 101.453 273.203 100.836 273 100.32C272.797 99.8047 272.477 99.4062 272.039 99.125C271.602 98.8281 271.016 98.6797 270.281 98.6797C269.688 98.6797 269.18 98.7812 268.758 98.9844C268.336 99.1875 268.016 99.4922 267.797 99.8984C267.578 100.305 267.469 100.82 267.469 101.445H259.57C259.57 100.273 259.828 99.1875 260.344 98.1875C260.875 97.1719 261.625 96.2891 262.594 95.5391C263.578 94.7891 264.75 94.2109 266.109 93.8047C267.484 93.3828 269.016 93.1719 270.703 93.1719C272.719 93.1719 274.516 93.5078 276.094 94.1797C277.688 94.8516 278.945 95.8594 279.867 97.2031C280.789 98.5312 281.25 100.203 281.25 102.219V112.602C281.25 114.258 281.344 115.516 281.531 116.375C281.719 117.219 281.984 117.961 282.328 118.602V119H274.406C274.031 118.219 273.75 117.266 273.562 116.141C273.391 115 273.305 113.828 273.305 112.625ZM274.266 103.508L274.312 107.727H270.82C270.086 107.727 269.461 107.828 268.945 108.031C268.445 108.234 268.039 108.516 267.727 108.875C267.43 109.219 267.211 109.609 267.07 110.047C266.945 110.484 266.883 110.945 266.883 111.43C266.883 111.898 266.992 112.32 267.211 112.695C267.445 113.055 267.758 113.336 268.148 113.539C268.539 113.742 268.977 113.844 269.461 113.844C270.336 113.844 271.078 113.68 271.688 113.352C272.312 113.008 272.789 112.594 273.117 112.109C273.445 111.625 273.609 111.172 273.609 110.75L275.344 113.984C275.031 114.609 274.672 115.242 274.266 115.883C273.875 116.523 273.383 117.117 272.789 117.664C272.211 118.195 271.5 118.633 270.656 118.977C269.812 119.305 268.789 119.469 267.586 119.469C266.023 119.469 264.586 119.148 263.273 118.508C261.977 117.867 260.938 116.977 260.156 115.836C259.375 114.68 258.984 113.352 258.984 111.852C258.984 110.539 259.219 109.367 259.688 108.336C260.172 107.305 260.898 106.43 261.867 105.711C262.836 104.992 264.07 104.445 265.57 104.07C267.07 103.695 268.836 103.508 270.867 103.508H274.266ZM296.344 113.375C297.078 113.375 297.703 113.242 298.219 112.977C298.75 112.695 299.148 112.305 299.414 111.805C299.695 111.289 299.828 110.672 299.812 109.953H307.242C307.258 111.859 306.789 113.531 305.836 114.969C304.898 116.391 303.617 117.5 301.992 118.297C300.383 119.078 298.562 119.469 296.531 119.469C294.547 119.469 292.812 119.148 291.328 118.508C289.844 117.852 288.602 116.945 287.602 115.789C286.617 114.617 285.875 113.25 285.375 111.688C284.891 110.125 284.648 108.43 284.648 106.602V106.062C284.648 104.234 284.891 102.539 285.375 100.977C285.875 99.3984 286.617 98.0312 287.602 96.875C288.602 95.7031 289.836 94.7969 291.305 94.1562C292.789 93.5 294.516 93.1719 296.484 93.1719C298.594 93.1719 300.453 93.5703 302.062 94.3672C303.688 95.1641 304.961 96.3203 305.883 97.8359C306.805 99.3516 307.258 101.188 307.242 103.344H299.812C299.828 102.578 299.711 101.891 299.461 101.281C299.211 100.672 298.82 100.188 298.289 99.8281C297.773 99.4531 297.109 99.2656 296.297 99.2656C295.484 99.2656 294.828 99.4453 294.328 99.8047C293.828 100.164 293.445 100.664 293.18 101.305C292.93 101.93 292.758 102.648 292.664 103.461C292.586 104.273 292.547 105.141 292.547 106.062V106.602C292.547 107.539 292.586 108.422 292.664 109.25C292.758 110.062 292.938 110.781 293.203 111.406C293.469 112.016 293.852 112.5 294.352 112.859C294.852 113.203 295.516 113.375 296.344 113.375ZM318.586 82.9766V119H310.688V82.9766H318.586ZM334.805 93.6406L323.789 106.555L318.023 112.32L314.578 107.305L319.383 101.047L325.336 93.6406H334.805ZM326.344 119L319.57 107.445L325.406 103.297L335.391 119H326.344ZM350.156 111.875C350.156 111.438 350.008 111.062 349.711 110.75C349.43 110.422 348.93 110.125 348.211 109.859C347.492 109.578 346.484 109.297 345.188 109.016C343.953 108.75 342.789 108.398 341.695 107.961C340.617 107.523 339.672 106.992 338.859 106.367C338.047 105.742 337.406 105 336.938 104.141C336.484 103.281 336.258 102.297 336.258 101.188C336.258 100.109 336.484 99.0938 336.938 98.1406C337.406 97.1719 338.086 96.3203 338.977 95.5859C339.883 94.8359 340.984 94.25 342.281 93.8281C343.578 93.3906 345.055 93.1719 346.711 93.1719C348.992 93.1719 350.961 93.5234 352.617 94.2266C354.273 94.9141 355.547 95.8828 356.438 97.1328C357.344 98.3672 357.797 99.7969 357.797 101.422H349.898C349.898 100.781 349.789 100.234 349.57 99.7812C349.367 99.3281 349.031 98.9844 348.562 98.75C348.094 98.5 347.469 98.375 346.688 98.375C346.141 98.375 345.641 98.4766 345.188 98.6797C344.75 98.8828 344.398 99.1641 344.133 99.5234C343.867 99.8828 343.734 100.305 343.734 100.789C343.734 101.133 343.812 101.445 343.969 101.727C344.141 101.992 344.398 102.242 344.742 102.477C345.086 102.695 345.523 102.898 346.055 103.086C346.586 103.258 347.227 103.414 347.977 103.555C349.68 103.867 351.273 104.312 352.758 104.891C354.242 105.469 355.445 106.289 356.367 107.352C357.305 108.414 357.773 109.844 357.773 111.641C357.773 112.766 357.516 113.805 357 114.758C356.484 115.695 355.742 116.523 354.773 117.242C353.805 117.945 352.641 118.492 351.281 118.883C349.922 119.273 348.391 119.469 346.688 119.469C344.266 119.469 342.219 119.039 340.547 118.18C338.875 117.305 337.609 116.211 336.75 114.898C335.906 113.57 335.484 112.227 335.484 110.867H342.844C342.875 111.648 343.062 112.289 343.406 112.789C343.766 113.289 344.242 113.656 344.836 113.891C345.43 114.125 346.117 114.242 346.898 114.242C347.617 114.242 348.211 114.141 348.68 113.938C349.164 113.734 349.531 113.461 349.781 113.117C350.031 112.758 350.156 112.344 350.156 111.875Z" fill="black"/>
<path d="M1134 0H1348C1356.28 0 1363 6.71573 1363 15V148C1363 156.284 1356.28 163 1348 163H1134V0Z" fill="#F25B5F"/>
<path fill-rule="evenodd" clip-rule="evenodd" d="M1218.75 53C1218.62 53 1218.49 53.0527 1218.4 53.1464C1218.3 53.2402 1218.25 53.3674 1218.25 53.5V109.5C1218.25 109.633 1218.3 109.76 1218.4 109.854C1218.49 109.947 1218.62 110 1218.75 110H1278.25C1278.38 110 1278.51 109.947 1278.6 109.854C1278.7 109.76 1278.75 109.633 1278.75 109.5V64C1278.75 63.8674 1278.7 63.7402 1278.6 63.6464C1278.51 63.5527 1278.38 63.5 1278.25 63.5H1248.5C1247.61 63.5 1246.77 63.1045 1246.2 62.4206L1238.34 53H1218.75ZM1214.15 48.9038C1215.37 47.6848 1217.03 47 1218.75 47H1239.75C1240.64 47 1241.48 47.3955 1242.05 48.0794L1249.91 57.5H1278.25C1279.97 57.5 1281.63 58.1848 1282.85 59.4038C1284.07 60.6228 1284.75 62.2761 1284.75 64V109.5C1284.75 111.224 1284.07 112.877 1282.85 114.096C1281.63 115.315 1279.97 116 1278.25 116H1218.75C1217.03 116 1215.37 115.315 1214.15 114.096C1212.93 112.877 1212.25 111.224 1212.25 109.5V53.5C1212.25 51.7761 1212.93 50.1228 1214.15 48.9038Z" fill="white"/>
<path fill-rule="evenodd" clip-rule="evenodd" d="M1243.97 75.5251C1245.34 76.892 1245.34 79.108 1243.97 80.4749L1237.7 86.75L1243.97 93.0251C1245.34 94.392 1245.34 96.608 1243.97 97.9749C1242.61 99.3417 1240.39 99.3417 1239.03 97.9749L1230.28 89.2249C1228.91 87.858 1228.91 85.642 1230.28 84.2751L1239.03 75.5251C1240.39 74.1583 1242.61 74.1583 1243.97 75.5251Z" fill="white"/>
<path fill-rule="evenodd" clip-rule="evenodd" d="M1252.28 97.9749C1250.91 96.608 1250.91 94.392 1252.28 93.0251L1258.55 86.75L1252.28 80.4749C1250.91 79.108 1250.91 76.892 1252.28 75.5251C1253.64 74.1583 1255.86 74.1583 1257.22 75.5251L1265.97 84.2751C1267.34 85.642 1267.34 87.858 1265.97 89.2249L1257.22 97.9749C1255.86 99.3417 1253.64 99.3417 1252.28 97.9749Z" fill="white"/>
</svg>
