<svg width="1363" height="163" viewBox="0 0 1363 163" fill="none" xmlns="http://www.w3.org/2000/svg">
<path d="M0 15C0 6.71573 6.71573 0 15 0H37V163H15C6.71573 163 0 156.284 0 148V15Z" fill="#F25B5F"/>
<rect width="1097" height="163" transform="translate(37)" fill="#F0F0F0"/>
<path d="M101.906 53.9219L94.3945 51.2383V48.0859L104.602 52.375V54.6367L101.906 53.9219ZM94.3945 56.1719L101.918 53.4297L104.602 52.7852V55.0352L94.3945 59.3242V56.1719ZM119.836 46.8555L115.195 61H111.457L117.797 43.9375H120.176L119.836 46.8555ZM123.691 61L119.039 46.8555L118.664 43.9375H121.066L127.441 61H123.691ZM123.48 54.6484V57.4023H114.469V54.6484H123.48ZM132.375 48.3203V61H128.988V48.3203H132.375ZM128.777 45.0156C128.777 44.5234 128.949 44.1172 129.293 43.7969C129.637 43.4766 130.098 43.3164 130.676 43.3164C131.246 43.3164 131.703 43.4766 132.047 43.7969C132.398 44.1172 132.574 44.5234 132.574 45.0156C132.574 45.5078 132.398 45.9141 132.047 46.2344C131.703 46.5547 131.246 46.7148 130.676 46.7148C130.098 46.7148 129.637 46.5547 129.293 46.2344C128.949 45.9141 128.777 45.5078 128.777 45.0156ZM138.539 51.0859V61H135.164V48.3203H138.34L138.539 51.0859ZM142.359 48.2383L142.301 51.3672C142.137 51.3438 141.938 51.3242 141.703 51.3086C141.477 51.2852 141.27 51.2734 141.082 51.2734C140.605 51.2734 140.191 51.3359 139.84 51.4609C139.496 51.5781 139.207 51.7539 138.973 51.9883C138.746 52.2227 138.574 52.5078 138.457 52.8438C138.348 53.1797 138.285 53.5625 138.27 53.9922L137.59 53.7812C137.59 52.9609 137.672 52.207 137.836 51.5195C138 50.8242 138.238 50.2188 138.551 49.7031C138.871 49.1875 139.262 48.7891 139.723 48.5078C140.184 48.2266 140.711 48.0859 141.305 48.0859C141.492 48.0859 141.684 48.1016 141.879 48.1328C142.074 48.1562 142.234 48.1914 142.359 48.2383ZM143.953 43H147.328V58.0938L146.988 61H143.953V43ZM155.355 54.5312V54.7773C155.355 55.7227 155.254 56.5898 155.051 57.3789C154.855 58.168 154.551 58.8516 154.137 59.4297C153.723 60 153.207 60.4453 152.59 60.7656C151.98 61.0781 151.262 61.2344 150.434 61.2344C149.66 61.2344 148.988 61.0781 148.418 60.7656C147.855 60.4531 147.383 60.0117 147 59.4414C146.617 58.8711 146.309 58.2031 146.074 57.4375C145.84 56.6719 145.664 55.8359 145.547 54.9297V54.3906C145.664 53.4844 145.84 52.6484 146.074 51.8828C146.309 51.1172 146.617 50.4492 147 49.8789C147.383 49.3086 147.855 48.8672 148.418 48.5547C148.98 48.2422 149.645 48.0859 150.41 48.0859C151.246 48.0859 151.973 48.2461 152.59 48.5664C153.215 48.8789 153.73 49.3242 154.137 49.9023C154.551 50.4727 154.855 51.1523 155.051 51.9414C155.254 52.7227 155.355 53.5859 155.355 54.5312ZM151.98 54.7773V54.5312C151.98 54.0156 151.941 53.5312 151.863 53.0781C151.793 52.6172 151.668 52.2148 151.488 51.8711C151.309 51.5195 151.062 51.2422 150.75 51.0391C150.445 50.8359 150.051 50.7344 149.566 50.7344C149.105 50.7344 148.715 50.8125 148.395 50.9688C148.074 51.125 147.809 51.3438 147.598 51.625C147.395 51.9062 147.242 52.2422 147.141 52.6328C147.039 53.0156 146.977 53.4375 146.953 53.8984V55.4336C146.977 56.0508 147.078 56.5977 147.258 57.0742C147.445 57.543 147.727 57.9141 148.102 58.1875C148.484 58.4531 148.98 58.5859 149.59 58.5859C150.066 58.5859 150.461 58.4922 150.773 58.3047C151.086 58.1172 151.328 57.8516 151.5 57.5078C151.68 57.1641 151.805 56.7617 151.875 56.3008C151.945 55.832 151.98 55.3242 151.98 54.7773ZM160.758 51.0273V61H157.383V48.3203H160.547L160.758 51.0273ZM160.266 54.2148H159.352C159.352 53.2773 159.473 52.4336 159.715 51.6836C159.957 50.9258 160.297 50.2812 160.734 49.75C161.172 49.2109 161.691 48.8008 162.293 48.5195C162.902 48.2305 163.582 48.0859 164.332 48.0859C164.926 48.0859 165.469 48.1719 165.961 48.3438C166.453 48.5156 166.875 48.7891 167.227 49.1641C167.586 49.5391 167.859 50.0352 168.047 50.6523C168.242 51.2695 168.34 52.0234 168.34 52.9141V61H164.941V52.9023C164.941 52.3398 164.863 51.9023 164.707 51.5898C164.551 51.2773 164.32 51.0586 164.016 50.9336C163.719 50.8008 163.352 50.7344 162.914 50.7344C162.461 50.7344 162.066 50.8242 161.73 51.0039C161.402 51.1836 161.129 51.4336 160.91 51.7539C160.699 52.0664 160.539 52.4336 160.43 52.8555C160.32 53.2773 160.266 53.7305 160.266 54.2148ZM170.906 43H174.281V58.0938L173.941 61H170.906V43ZM182.309 54.5312V54.7773C182.309 55.7227 182.207 56.5898 182.004 57.3789C181.809 58.168 181.504 58.8516 181.09 59.4297C180.676 60 180.16 60.4453 179.543 60.7656C178.934 61.0781 178.215 61.2344 177.387 61.2344C176.613 61.2344 175.941 61.0781 175.371 60.7656C174.809 60.4531 174.336 60.0117 173.953 59.4414C173.57 58.8711 173.262 58.2031 173.027 57.4375C172.793 56.6719 172.617 55.8359 172.5 54.9297V54.3906C172.617 53.4844 172.793 52.6484 173.027 51.8828C173.262 51.1172 173.57 50.4492 173.953 49.8789C174.336 49.3086 174.809 48.8672 175.371 48.5547C175.934 48.2422 176.598 48.0859 177.363 48.0859C178.199 48.0859 178.926 48.2461 179.543 48.5664C180.168 48.8789 180.684 49.3242 181.09 49.9023C181.504 50.4727 181.809 51.1523 182.004 51.9414C182.207 52.7227 182.309 53.5859 182.309 54.5312ZM178.934 54.7773V54.5312C178.934 54.0156 178.895 53.5312 178.816 53.0781C178.746 52.6172 178.621 52.2148 178.441 51.8711C178.262 51.5195 178.016 51.2422 177.703 51.0391C177.398 50.8359 177.004 50.7344 176.52 50.7344C176.059 50.7344 175.668 50.8125 175.348 50.9688C175.027 51.125 174.762 51.3438 174.551 51.625C174.348 51.9062 174.195 52.2422 174.094 52.6328C173.992 53.0156 173.93 53.4375 173.906 53.8984V55.4336C173.93 56.0508 174.031 56.5977 174.211 57.0742C174.398 57.543 174.68 57.9141 175.055 58.1875C175.438 58.4531 175.934 58.5859 176.543 58.5859C177.02 58.5859 177.414 58.4922 177.727 58.3047C178.039 58.1172 178.281 57.8516 178.453 57.5078C178.633 57.1641 178.758 56.7617 178.828 56.3008C178.898 55.832 178.934 55.3242 178.934 54.7773ZM197.531 46.8555L192.891 61H189.152L195.492 43.9375H197.871L197.531 46.8555ZM201.387 61L196.734 46.8555L196.359 43.9375H198.762L205.137 61H201.387ZM201.176 54.6484V57.4023H192.164V54.6484H201.176ZM209.438 51.0273V61H206.062V48.3203H209.227L209.438 51.0273ZM208.945 54.2148H208.031C208.031 53.2773 208.152 52.4336 208.395 51.6836C208.637 50.9258 208.977 50.2812 209.414 49.75C209.852 49.2109 210.371 48.8008 210.973 48.5195C211.582 48.2305 212.262 48.0859 213.012 48.0859C213.605 48.0859 214.148 48.1719 214.641 48.3438C215.133 48.5156 215.555 48.7891 215.906 49.1641C216.266 49.5391 216.539 50.0352 216.727 50.6523C216.922 51.2695 217.02 52.0234 217.02 52.9141V61H213.621V52.9023C213.621 52.3398 213.543 51.9023 213.387 51.5898C213.23 51.2773 213 51.0586 212.695 50.9336C212.398 50.8008 212.031 50.7344 211.594 50.7344C211.141 50.7344 210.746 50.8242 210.41 51.0039C210.082 51.1836 209.809 51.4336 209.59 51.7539C209.379 52.0664 209.219 52.4336 209.109 52.8555C209 53.2773 208.945 53.7305 208.945 54.2148ZM226.43 58.1406V52.4922C226.43 52.0859 226.363 51.7383 226.23 51.4492C226.098 51.1523 225.891 50.9219 225.609 50.7578C225.336 50.5938 224.98 50.5117 224.543 50.5117C224.168 50.5117 223.844 50.5781 223.57 50.7109C223.297 50.8359 223.086 51.0195 222.938 51.2617C222.789 51.4961 222.715 51.7734 222.715 52.0938H219.34C219.34 51.5547 219.465 51.043 219.715 50.5586C219.965 50.0742 220.328 49.6484 220.805 49.2812C221.281 48.9062 221.848 48.6133 222.504 48.4023C223.168 48.1914 223.91 48.0859 224.73 48.0859C225.715 48.0859 226.59 48.25 227.355 48.5781C228.121 48.9062 228.723 49.3984 229.16 50.0547C229.605 50.7109 229.828 51.5312 229.828 52.5156V57.9414C229.828 58.6367 229.871 59.207 229.957 59.6523C230.043 60.0898 230.168 60.4727 230.332 60.8008V61H226.922C226.758 60.6562 226.633 60.2266 226.547 59.7109C226.469 59.1875 226.43 58.6641 226.43 58.1406ZM226.875 53.2773L226.898 55.1875H225.012C224.566 55.1875 224.18 55.2383 223.852 55.3398C223.523 55.4414 223.254 55.5859 223.043 55.7734C222.832 55.9531 222.676 56.1641 222.574 56.4062C222.48 56.6484 222.434 56.9141 222.434 57.2031C222.434 57.4922 222.5 57.7539 222.633 57.9883C222.766 58.2148 222.957 58.3945 223.207 58.5273C223.457 58.6523 223.75 58.7148 224.086 58.7148C224.594 58.7148 225.035 58.6133 225.41 58.4102C225.785 58.207 226.074 57.957 226.277 57.6602C226.488 57.3633 226.598 57.082 226.605 56.8164L227.496 58.2461C227.371 58.5664 227.199 58.8984 226.98 59.2422C226.77 59.5859 226.5 59.9102 226.172 60.2148C225.844 60.5117 225.449 60.7578 224.988 60.9531C224.527 61.1406 223.98 61.2344 223.348 61.2344C222.543 61.2344 221.812 61.0742 221.156 60.7539C220.508 60.4258 219.992 59.9766 219.609 59.4062C219.234 58.8281 219.047 58.1719 219.047 57.4375C219.047 56.7734 219.172 56.1836 219.422 55.668C219.672 55.1523 220.039 54.7188 220.523 54.3672C221.016 54.0078 221.629 53.7383 222.363 53.5586C223.098 53.3711 223.949 53.2773 224.918 53.2773H226.875ZM235.992 43V61H232.605V43H235.992ZM242.543 59.5703L245.906 48.3203H249.527L244.43 62.9102C244.32 63.2305 244.172 63.5742 243.984 63.9414C243.805 64.3086 243.559 64.6562 243.246 64.9844C242.941 65.3203 242.555 65.5938 242.086 65.8047C241.625 66.0156 241.059 66.1211 240.387 66.1211C240.066 66.1211 239.805 66.1016 239.602 66.0625C239.398 66.0234 239.156 65.9688 238.875 65.8984V63.4258C238.961 63.4258 239.051 63.4258 239.145 63.4258C239.238 63.4336 239.328 63.4375 239.414 63.4375C239.859 63.4375 240.223 63.3867 240.504 63.2852C240.785 63.1836 241.012 63.0273 241.184 62.8164C241.355 62.6133 241.492 62.3477 241.594 62.0195L242.543 59.5703ZM241.137 48.3203L243.891 57.5078L244.371 61.082L242.074 61.3281L237.516 48.3203H241.137ZM257.73 57.4961C257.73 57.2539 257.66 57.0352 257.52 56.8398C257.379 56.6445 257.117 56.4648 256.734 56.3008C256.359 56.1289 255.816 55.9727 255.105 55.832C254.465 55.6914 253.867 55.5156 253.312 55.3047C252.766 55.0859 252.289 54.8242 251.883 54.5195C251.484 54.2148 251.172 53.8555 250.945 53.4414C250.719 53.0195 250.605 52.5391 250.605 52C250.605 51.4688 250.719 50.9688 250.945 50.5C251.18 50.0312 251.512 49.6172 251.941 49.2578C252.379 48.8906 252.91 48.6055 253.535 48.4023C254.168 48.1914 254.879 48.0859 255.668 48.0859C256.77 48.0859 257.715 48.2617 258.504 48.6133C259.301 48.9648 259.91 49.4492 260.332 50.0664C260.762 50.6758 260.977 51.3711 260.977 52.1523H257.602C257.602 51.8242 257.531 51.5312 257.391 51.2734C257.258 51.0078 257.047 50.8008 256.758 50.6523C256.477 50.4961 256.109 50.418 255.656 50.418C255.281 50.418 254.957 50.4844 254.684 50.6172C254.41 50.7422 254.199 50.9141 254.051 51.1328C253.91 51.3438 253.84 51.5781 253.84 51.8359C253.84 52.0312 253.879 52.207 253.957 52.3633C254.043 52.5117 254.18 52.6484 254.367 52.7734C254.555 52.8984 254.797 53.0156 255.094 53.125C255.398 53.2266 255.773 53.3203 256.219 53.4062C257.133 53.5938 257.949 53.8398 258.668 54.1445C259.387 54.4414 259.957 54.8477 260.379 55.3633C260.801 55.8711 261.012 56.5391 261.012 57.3672C261.012 57.9297 260.887 58.4453 260.637 58.9141C260.387 59.3828 260.027 59.793 259.559 60.1445C259.09 60.4883 258.527 60.7578 257.871 60.9531C257.223 61.1406 256.492 61.2344 255.68 61.2344C254.5 61.2344 253.5 61.0234 252.68 60.6016C251.867 60.1797 251.25 59.6445 250.828 58.9961C250.414 58.3398 250.207 57.668 250.207 56.9805H253.406C253.422 57.4414 253.539 57.8125 253.758 58.0938C253.984 58.375 254.27 58.5781 254.613 58.7031C254.965 58.8281 255.344 58.8906 255.75 58.8906C256.188 58.8906 256.551 58.832 256.84 58.7148C257.129 58.5898 257.348 58.4258 257.496 58.2227C257.652 58.0117 257.73 57.7695 257.73 57.4961ZM266.766 48.3203V61H263.379V48.3203H266.766ZM263.168 45.0156C263.168 44.5234 263.34 44.1172 263.684 43.7969C264.027 43.4766 264.488 43.3164 265.066 43.3164C265.637 43.3164 266.094 43.4766 266.438 43.7969C266.789 44.1172 266.965 44.5234 266.965 45.0156C266.965 45.5078 266.789 45.9141 266.438 46.2344C266.094 46.5547 265.637 46.7148 265.066 46.7148C264.488 46.7148 264.027 46.5547 263.684 46.2344C263.34 45.9141 263.168 45.5078 263.168 45.0156ZM276.41 57.4961C276.41 57.2539 276.34 57.0352 276.199 56.8398C276.059 56.6445 275.797 56.4648 275.414 56.3008C275.039 56.1289 274.496 55.9727 273.785 55.832C273.145 55.6914 272.547 55.5156 271.992 55.3047C271.445 55.0859 270.969 54.8242 270.562 54.5195C270.164 54.2148 269.852 53.8555 269.625 53.4414C269.398 53.0195 269.285 52.5391 269.285 52C269.285 51.4688 269.398 50.9688 269.625 50.5C269.859 50.0312 270.191 49.6172 270.621 49.2578C271.059 48.8906 271.59 48.6055 272.215 48.4023C272.848 48.1914 273.559 48.0859 274.348 48.0859C275.449 48.0859 276.395 48.2617 277.184 48.6133C277.98 48.9648 278.59 49.4492 279.012 50.0664C279.441 50.6758 279.656 51.3711 279.656 52.1523H276.281C276.281 51.8242 276.211 51.5312 276.07 51.2734C275.938 51.0078 275.727 50.8008 275.438 50.6523C275.156 50.4961 274.789 50.418 274.336 50.418C273.961 50.418 273.637 50.4844 273.363 50.6172C273.09 50.7422 272.879 50.9141 272.73 51.1328C272.59 51.3438 272.52 51.5781 272.52 51.8359C272.52 52.0312 272.559 52.207 272.637 52.3633C272.723 52.5117 272.859 52.6484 273.047 52.7734C273.234 52.8984 273.477 53.0156 273.773 53.125C274.078 53.2266 274.453 53.3203 274.898 53.4062C275.812 53.5938 276.629 53.8398 277.348 54.1445C278.066 54.4414 278.637 54.8477 279.059 55.3633C279.48 55.8711 279.691 56.5391 279.691 57.3672C279.691 57.9297 279.566 58.4453 279.316 58.9141C279.066 59.3828 278.707 59.793 278.238 60.1445C277.77 60.4883 277.207 60.7578 276.551 60.9531C275.902 61.1406 275.172 61.2344 274.359 61.2344C273.18 61.2344 272.18 61.0234 271.359 60.6016C270.547 60.1797 269.93 59.6445 269.508 58.9961C269.094 58.3398 268.887 57.668 268.887 56.9805H272.086C272.102 57.4414 272.219 57.8125 272.438 58.0938C272.664 58.375 272.949 58.5781 273.293 58.7031C273.645 58.8281 274.023 58.8906 274.43 58.8906C274.867 58.8906 275.23 58.832 275.52 58.7148C275.809 58.5898 276.027 58.4258 276.176 58.2227C276.332 58.0117 276.41 57.7695 276.41 57.4961Z" fill="#888888"/>
<path d="M118.594 98.4219V104.75H101.086V98.4219H118.594ZM103.828 84.875V119H95.6016V84.875H103.828ZM124.125 84.875V119H115.922V84.875H124.125ZM127.992 106.578V106.086C127.992 104.227 128.258 102.516 128.789 100.953C129.32 99.375 130.102 98.0078 131.133 96.8516C132.164 95.6953 133.438 94.7969 134.953 94.1562C136.469 93.5 138.219 93.1719 140.203 93.1719C142.203 93.1719 143.961 93.5 145.477 94.1562C147.008 94.7969 148.289 95.6953 149.32 96.8516C150.352 98.0078 151.133 99.375 151.664 100.953C152.195 102.516 152.461 104.227 152.461 106.086V106.578C152.461 108.422 152.195 110.133 151.664 111.711C151.133 113.273 150.352 114.641 149.32 115.812C148.289 116.969 147.016 117.867 145.5 118.508C143.984 119.148 142.234 119.469 140.25 119.469C138.266 119.469 136.508 119.148 134.977 118.508C133.445 117.867 132.164 116.969 131.133 115.812C130.102 114.641 129.32 113.273 128.789 111.711C128.258 110.133 127.992 108.422 127.992 106.578ZM135.891 106.086V106.578C135.891 107.531 135.961 108.422 136.102 109.25C136.242 110.078 136.477 110.805 136.805 111.43C137.133 112.039 137.578 112.516 138.141 112.859C138.703 113.203 139.406 113.375 140.25 113.375C141.078 113.375 141.766 113.203 142.312 112.859C142.875 112.516 143.32 112.039 143.648 111.43C143.977 110.805 144.211 110.078 144.352 109.25C144.492 108.422 144.562 107.531 144.562 106.578V106.086C144.562 105.164 144.492 104.297 144.352 103.484C144.211 102.656 143.977 101.93 143.648 101.305C143.32 100.664 142.875 100.164 142.312 99.8047C141.75 99.4453 141.047 99.2656 140.203 99.2656C139.375 99.2656 138.68 99.4453 138.117 99.8047C137.57 100.164 137.133 100.664 136.805 101.305C136.477 101.93 136.242 102.656 136.102 103.484C135.961 104.297 135.891 105.164 135.891 106.086ZM163.688 111.453L168.375 93.6406H173.32L171.562 102.57L166.922 119H162.961L163.688 111.453ZM161.836 93.6406L164.742 111.312L165.07 119H160.266L154.266 93.6406H161.836ZM177.492 110.938L180.422 93.6406H187.992L182.039 119H177.234L177.492 110.938ZM173.883 93.6406L178.617 111.406L179.344 119H175.336L170.789 102.617L169.102 93.6406H173.883ZM218.297 84.875V119H210.07V84.875H218.297ZM228.562 84.875V91.2266H200.039V84.875H228.562ZM225.773 106.578V106.086C225.773 104.227 226.039 102.516 226.57 100.953C227.102 99.375 227.883 98.0078 228.914 96.8516C229.945 95.6953 231.219 94.7969 232.734 94.1562C234.25 93.5 236 93.1719 237.984 93.1719C239.984 93.1719 241.742 93.5 243.258 94.1562C244.789 94.7969 246.07 95.6953 247.102 96.8516C248.133 98.0078 248.914 99.375 249.445 100.953C249.977 102.516 250.242 104.227 250.242 106.086V106.578C250.242 108.422 249.977 110.133 249.445 111.711C248.914 113.273 248.133 114.641 247.102 115.812C246.07 116.969 244.797 117.867 243.281 118.508C241.766 119.148 240.016 119.469 238.031 119.469C236.047 119.469 234.289 119.148 232.758 118.508C231.227 117.867 229.945 116.969 228.914 115.812C227.883 114.641 227.102 113.273 226.57 111.711C226.039 110.133 225.773 108.422 225.773 106.578ZM233.672 106.086V106.578C233.672 107.531 233.742 108.422 233.883 109.25C234.023 110.078 234.258 110.805 234.586 111.43C234.914 112.039 235.359 112.516 235.922 112.859C236.484 113.203 237.188 113.375 238.031 113.375C238.859 113.375 239.547 113.203 240.094 112.859C240.656 112.516 241.102 112.039 241.43 111.43C241.758 110.805 241.992 110.078 242.133 109.25C242.273 108.422 242.344 107.531 242.344 106.578V106.086C242.344 105.164 242.273 104.297 242.133 103.484C241.992 102.656 241.758 101.93 241.43 101.305C241.102 100.664 240.656 100.164 240.094 99.8047C239.531 99.4453 238.828 99.2656 237.984 99.2656C237.156 99.2656 236.461 99.4453 235.898 99.8047C235.352 100.164 234.914 100.664 234.586 101.305C234.258 101.93 234.023 102.656 233.883 103.484C233.742 104.297 233.672 105.164 233.672 106.086ZM266.086 84.875H279.516C282.141 84.875 284.422 85.2656 286.359 86.0469C288.297 86.8281 289.789 87.9844 290.836 89.5156C291.898 91.0469 292.43 92.9375 292.43 95.1875C292.43 97.1406 292.125 98.7734 291.516 100.086C290.906 101.398 290.055 102.484 288.961 103.344C287.883 104.188 286.625 104.883 285.188 105.43L282.492 106.953H271.219L271.172 100.602H279.516C280.562 100.602 281.43 100.414 282.117 100.039C282.805 99.6641 283.32 99.1328 283.664 98.4453C284.023 97.7422 284.203 96.9062 284.203 95.9375C284.203 94.9531 284.023 94.1094 283.664 93.4062C283.305 92.7031 282.773 92.1641 282.07 91.7891C281.383 91.4141 280.531 91.2266 279.516 91.2266H274.312V119H266.086V84.875ZM284.766 119L277.219 103.906L285.938 103.859L293.578 118.648V119H284.766ZM311.836 112.836V93.6406H319.758V119H312.352L311.836 112.836ZM312.586 107.68L314.648 107.633C314.648 109.336 314.445 110.914 314.039 112.367C313.633 113.805 313.031 115.055 312.234 116.117C311.453 117.18 310.484 118.008 309.328 118.602C308.188 119.18 306.867 119.469 305.367 119.469C304.117 119.469 302.969 119.297 301.922 118.953C300.891 118.594 300 118.039 299.25 117.289C298.5 116.523 297.914 115.547 297.492 114.359C297.086 113.156 296.883 111.719 296.883 110.047V93.6406H304.781V110.094C304.781 110.656 304.852 111.141 304.992 111.547C305.133 111.953 305.336 112.297 305.602 112.578C305.867 112.844 306.195 113.047 306.586 113.188C306.992 113.312 307.453 113.375 307.969 113.375C309.156 113.375 310.086 113.125 310.758 112.625C311.43 112.125 311.898 111.445 312.164 110.586C312.445 109.727 312.586 108.758 312.586 107.68ZM331.875 99.0547V119H323.977V93.6406H331.383L331.875 99.0547ZM330.938 105.453L329.086 105.5C329.086 103.562 329.32 101.836 329.789 100.32C330.258 98.7891 330.922 97.4922 331.781 96.4297C332.641 95.3672 333.664 94.5625 334.852 94.0156C336.055 93.4531 337.391 93.1719 338.859 93.1719C340.031 93.1719 341.102 93.3438 342.07 93.6875C343.055 94.0312 343.898 94.5859 344.602 95.3516C345.32 96.1172 345.867 97.1328 346.242 98.3984C346.633 99.6484 346.828 101.195 346.828 103.039V119H338.883V103.016C338.883 102 338.742 101.227 338.461 100.695C338.18 100.148 337.773 99.7734 337.242 99.5703C336.711 99.3672 336.062 99.2656 335.297 99.2656C334.484 99.2656 333.797 99.4219 333.234 99.7344C332.672 100.047 332.219 100.484 331.875 101.047C331.547 101.594 331.305 102.242 331.148 102.992C331.008 103.742 330.938 104.562 330.938 105.453ZM363.773 108.195H357.047C357.047 106.82 357.141 105.609 357.328 104.562C357.531 103.5 357.875 102.547 358.359 101.703C358.844 100.859 359.5 100.078 360.328 99.3594C361.062 98.75 361.695 98.1641 362.227 97.6016C362.758 97.0391 363.164 96.4688 363.445 95.8906C363.727 95.3125 363.867 94.6953 363.867 94.0391C363.867 93.2266 363.75 92.5625 363.516 92.0469C363.297 91.5312 362.961 91.1484 362.508 90.8984C362.07 90.6328 361.516 90.5 360.844 90.5C360.297 90.5 359.781 90.6328 359.297 90.8984C358.828 91.1641 358.445 91.5781 358.148 92.1406C357.852 92.6875 357.688 93.4141 357.656 94.3203H349.711C349.758 91.9922 350.273 90.1016 351.258 88.6484C352.258 87.1797 353.586 86.1094 355.242 85.4375C356.914 84.75 358.781 84.4062 360.844 84.4062C363.125 84.4062 365.086 84.7578 366.727 85.4609C368.367 86.1641 369.625 87.2109 370.5 88.6016C371.375 89.9766 371.812 91.6719 371.812 93.6875C371.812 95.0312 371.555 96.2031 371.039 97.2031C370.539 98.1875 369.859 99.1094 369 99.9688C368.156 100.812 367.211 101.719 366.164 102.688C365.258 103.484 364.641 104.297 364.312 105.125C363.984 105.938 363.805 106.961 363.773 108.195ZM356.086 115.32C356.086 114.195 356.492 113.258 357.305 112.508C358.117 111.742 359.172 111.359 360.469 111.359C361.766 111.359 362.82 111.742 363.633 112.508C364.445 113.258 364.852 114.195 364.852 115.32C364.852 116.445 364.445 117.391 363.633 118.156C362.82 118.906 361.766 119.281 360.469 119.281C359.172 119.281 358.117 118.906 357.305 118.156C356.492 117.391 356.086 116.445 356.086 115.32Z" fill="black"/>
<path d="M1134 0H1348C1356.28 0 1363 6.71573 1363 15V148C1363 156.284 1356.28 163 1348 163H1134V0Z" fill="#F25B5F"/>
<path d="M1260.62 78.8078C1263.81 78.8078 1266.93 79.7552 1269.59 81.5302C1272.25 83.3052 1274.32 85.8281 1275.54 88.7798C1276.76 91.7315 1277.08 94.9795 1276.46 98.1131C1275.84 101.247 1274.3 104.125 1272.04 106.384C1269.78 108.643 1266.9 110.182 1263.77 110.805C1260.63 111.428 1257.39 111.108 1254.43 109.886C1251.48 108.663 1248.96 106.593 1247.18 103.936C1245.41 101.28 1244.46 98.1565 1244.46 94.9616C1244.46 90.6774 1246.16 86.5686 1249.19 83.5392C1252.22 80.5097 1256.33 78.8078 1260.62 78.8078ZM1260.62 73.4232C1256.36 73.4232 1252.19 74.6864 1248.65 77.0531C1245.11 79.4198 1242.35 82.7836 1240.72 86.7192C1239.09 90.6549 1238.66 94.9855 1239.49 99.1636C1240.32 103.342 1242.37 107.179 1245.39 110.192C1248.4 113.204 1252.24 115.255 1256.41 116.086C1260.59 116.917 1264.92 116.491 1268.86 114.861C1272.79 113.23 1276.16 110.47 1278.52 106.928C1280.89 103.386 1282.15 99.2215 1282.15 94.9616C1282.15 89.2493 1279.88 83.7709 1275.85 79.7317C1271.81 75.6924 1266.33 73.4232 1260.62 73.4232Z" fill="white"/>
<path d="M1274.08 46.4999H1220.23C1218.8 46.4999 1217.43 47.0672 1216.42 48.0771C1215.41 49.0869 1214.85 50.4565 1214.85 51.8845V105.731C1214.85 107.159 1215.41 108.528 1216.42 109.538C1217.43 110.548 1218.8 111.115 1220.23 111.115H1231V105.731H1220.23V68.0383H1279.46V51.8845C1279.46 50.4565 1278.89 49.0869 1277.88 48.0771C1276.87 47.0672 1275.5 46.4999 1274.08 46.4999ZM1220.23 62.6537V51.8845H1274.08V62.6537H1220.23Z" fill="white"/>
<path d="M1255.23 86.8848V103.039L1268.69 94.9617L1255.23 86.8848Z" fill="white"/>
</svg>
