<svg width="1363" height="163" viewBox="0 0 1363 163" fill="none" xmlns="http://www.w3.org/2000/svg">
<path d="M0 15C0 6.71573 6.71573 0 15 0H37V163H15C6.71573 163 0 156.284 0 148V15Z" fill="#F25B5F"/>
<rect width="1097" height="163" transform="translate(37)" fill="#F0F0F0"/>
<path d="M101.906 53.9219L94.3945 51.2383V48.0859L104.602 52.375V54.6367L101.906 53.9219ZM94.3945 56.1719L101.918 53.4297L104.602 52.7852V55.0352L94.3945 59.3242V56.1719ZM119.836 46.8555L115.195 61H111.457L117.797 43.9375H120.176L119.836 46.8555ZM123.691 61L119.039 46.8555L118.664 43.9375H121.066L127.441 61H123.691ZM123.48 54.6484V57.4023H114.469V54.6484H123.48ZM132.375 48.3203V61H128.988V48.3203H132.375ZM128.777 45.0156C128.777 44.5234 128.949 44.1172 129.293 43.7969C129.637 43.4766 130.098 43.3164 130.676 43.3164C131.246 43.3164 131.703 43.4766 132.047 43.7969C132.398 44.1172 132.574 44.5234 132.574 45.0156C132.574 45.5078 132.398 45.9141 132.047 46.2344C131.703 46.5547 131.246 46.7148 130.676 46.7148C130.098 46.7148 129.637 46.5547 129.293 46.2344C128.949 45.9141 128.777 45.5078 128.777 45.0156ZM138.539 51.0859V61H135.164V48.3203H138.34L138.539 51.0859ZM142.359 48.2383L142.301 51.3672C142.137 51.3438 141.938 51.3242 141.703 51.3086C141.477 51.2852 141.27 51.2734 141.082 51.2734C140.605 51.2734 140.191 51.3359 139.84 51.4609C139.496 51.5781 139.207 51.7539 138.973 51.9883C138.746 52.2227 138.574 52.5078 138.457 52.8438C138.348 53.1797 138.285 53.5625 138.27 53.9922L137.59 53.7812C137.59 52.9609 137.672 52.207 137.836 51.5195C138 50.8242 138.238 50.2188 138.551 49.7031C138.871 49.1875 139.262 48.7891 139.723 48.5078C140.184 48.2266 140.711 48.0859 141.305 48.0859C141.492 48.0859 141.684 48.1016 141.879 48.1328C142.074 48.1562 142.234 48.1914 142.359 48.2383ZM143.953 43H147.328V58.0938L146.988 61H143.953V43ZM155.355 54.5312V54.7773C155.355 55.7227 155.254 56.5898 155.051 57.3789C154.855 58.168 154.551 58.8516 154.137 59.4297C153.723 60 153.207 60.4453 152.59 60.7656C151.98 61.0781 151.262 61.2344 150.434 61.2344C149.66 61.2344 148.988 61.0781 148.418 60.7656C147.855 60.4531 147.383 60.0117 147 59.4414C146.617 58.8711 146.309 58.2031 146.074 57.4375C145.84 56.6719 145.664 55.8359 145.547 54.9297V54.3906C145.664 53.4844 145.84 52.6484 146.074 51.8828C146.309 51.1172 146.617 50.4492 147 49.8789C147.383 49.3086 147.855 48.8672 148.418 48.5547C148.98 48.2422 149.645 48.0859 150.41 48.0859C151.246 48.0859 151.973 48.2461 152.59 48.5664C153.215 48.8789 153.73 49.3242 154.137 49.9023C154.551 50.4727 154.855 51.1523 155.051 51.9414C155.254 52.7227 155.355 53.5859 155.355 54.5312ZM151.98 54.7773V54.5312C151.98 54.0156 151.941 53.5312 151.863 53.0781C151.793 52.6172 151.668 52.2148 151.488 51.8711C151.309 51.5195 151.062 51.2422 150.75 51.0391C150.445 50.8359 150.051 50.7344 149.566 50.7344C149.105 50.7344 148.715 50.8125 148.395 50.9688C148.074 51.125 147.809 51.3438 147.598 51.625C147.395 51.9062 147.242 52.2422 147.141 52.6328C147.039 53.0156 146.977 53.4375 146.953 53.8984V55.4336C146.977 56.0508 147.078 56.5977 147.258 57.0742C147.445 57.543 147.727 57.9141 148.102 58.1875C148.484 58.4531 148.98 58.5859 149.59 58.5859C150.066 58.5859 150.461 58.4922 150.773 58.3047C151.086 58.1172 151.328 57.8516 151.5 57.5078C151.68 57.1641 151.805 56.7617 151.875 56.3008C151.945 55.832 151.98 55.3242 151.98 54.7773ZM160.758 51.0273V61H157.383V48.3203H160.547L160.758 51.0273ZM160.266 54.2148H159.352C159.352 53.2773 159.473 52.4336 159.715 51.6836C159.957 50.9258 160.297 50.2812 160.734 49.75C161.172 49.2109 161.691 48.8008 162.293 48.5195C162.902 48.2305 163.582 48.0859 164.332 48.0859C164.926 48.0859 165.469 48.1719 165.961 48.3438C166.453 48.5156 166.875 48.7891 167.227 49.1641C167.586 49.5391 167.859 50.0352 168.047 50.6523C168.242 51.2695 168.34 52.0234 168.34 52.9141V61H164.941V52.9023C164.941 52.3398 164.863 51.9023 164.707 51.5898C164.551 51.2773 164.32 51.0586 164.016 50.9336C163.719 50.8008 163.352 50.7344 162.914 50.7344C162.461 50.7344 162.066 50.8242 161.73 51.0039C161.402 51.1836 161.129 51.4336 160.91 51.7539C160.699 52.0664 160.539 52.4336 160.43 52.8555C160.32 53.2773 160.266 53.7305 160.266 54.2148ZM170.906 43H174.281V58.0938L173.941 61H170.906V43ZM182.309 54.5312V54.7773C182.309 55.7227 182.207 56.5898 182.004 57.3789C181.809 58.168 181.504 58.8516 181.09 59.4297C180.676 60 180.16 60.4453 179.543 60.7656C178.934 61.0781 178.215 61.2344 177.387 61.2344C176.613 61.2344 175.941 61.0781 175.371 60.7656C174.809 60.4531 174.336 60.0117 173.953 59.4414C173.57 58.8711 173.262 58.2031 173.027 57.4375C172.793 56.6719 172.617 55.8359 172.5 54.9297V54.3906C172.617 53.4844 172.793 52.6484 173.027 51.8828C173.262 51.1172 173.57 50.4492 173.953 49.8789C174.336 49.3086 174.809 48.8672 175.371 48.5547C175.934 48.2422 176.598 48.0859 177.363 48.0859C178.199 48.0859 178.926 48.2461 179.543 48.5664C180.168 48.8789 180.684 49.3242 181.09 49.9023C181.504 50.4727 181.809 51.1523 182.004 51.9414C182.207 52.7227 182.309 53.5859 182.309 54.5312ZM178.934 54.7773V54.5312C178.934 54.0156 178.895 53.5312 178.816 53.0781C178.746 52.6172 178.621 52.2148 178.441 51.8711C178.262 51.5195 178.016 51.2422 177.703 51.0391C177.398 50.8359 177.004 50.7344 176.52 50.7344C176.059 50.7344 175.668 50.8125 175.348 50.9688C175.027 51.125 174.762 51.3438 174.551 51.625C174.348 51.9062 174.195 52.2422 174.094 52.6328C173.992 53.0156 173.93 53.4375 173.906 53.8984V55.4336C173.93 56.0508 174.031 56.5977 174.211 57.0742C174.398 57.543 174.68 57.9141 175.055 58.1875C175.438 58.4531 175.934 58.5859 176.543 58.5859C177.02 58.5859 177.414 58.4922 177.727 58.3047C178.039 58.1172 178.281 57.8516 178.453 57.5078C178.633 57.1641 178.758 56.7617 178.828 56.3008C178.898 55.832 178.934 55.3242 178.934 54.7773ZM197.531 46.8555L192.891 61H189.152L195.492 43.9375H197.871L197.531 46.8555ZM201.387 61L196.734 46.8555L196.359 43.9375H198.762L205.137 61H201.387ZM201.176 54.6484V57.4023H192.164V54.6484H201.176ZM209.438 51.0273V61H206.062V48.3203H209.227L209.438 51.0273ZM208.945 54.2148H208.031C208.031 53.2773 208.152 52.4336 208.395 51.6836C208.637 50.9258 208.977 50.2812 209.414 49.75C209.852 49.2109 210.371 48.8008 210.973 48.5195C211.582 48.2305 212.262 48.0859 213.012 48.0859C213.605 48.0859 214.148 48.1719 214.641 48.3438C215.133 48.5156 215.555 48.7891 215.906 49.1641C216.266 49.5391 216.539 50.0352 216.727 50.6523C216.922 51.2695 217.02 52.0234 217.02 52.9141V61H213.621V52.9023C213.621 52.3398 213.543 51.9023 213.387 51.5898C213.23 51.2773 213 51.0586 212.695 50.9336C212.398 50.8008 212.031 50.7344 211.594 50.7344C211.141 50.7344 210.746 50.8242 210.41 51.0039C210.082 51.1836 209.809 51.4336 209.59 51.7539C209.379 52.0664 209.219 52.4336 209.109 52.8555C209 53.2773 208.945 53.7305 208.945 54.2148ZM226.43 58.1406V52.4922C226.43 52.0859 226.363 51.7383 226.23 51.4492C226.098 51.1523 225.891 50.9219 225.609 50.7578C225.336 50.5938 224.98 50.5117 224.543 50.5117C224.168 50.5117 223.844 50.5781 223.57 50.7109C223.297 50.8359 223.086 51.0195 222.938 51.2617C222.789 51.4961 222.715 51.7734 222.715 52.0938H219.34C219.34 51.5547 219.465 51.043 219.715 50.5586C219.965 50.0742 220.328 49.6484 220.805 49.2812C221.281 48.9062 221.848 48.6133 222.504 48.4023C223.168 48.1914 223.91 48.0859 224.73 48.0859C225.715 48.0859 226.59 48.25 227.355 48.5781C228.121 48.9062 228.723 49.3984 229.16 50.0547C229.605 50.7109 229.828 51.5312 229.828 52.5156V57.9414C229.828 58.6367 229.871 59.207 229.957 59.6523C230.043 60.0898 230.168 60.4727 230.332 60.8008V61H226.922C226.758 60.6562 226.633 60.2266 226.547 59.7109C226.469 59.1875 226.43 58.6641 226.43 58.1406ZM226.875 53.2773L226.898 55.1875H225.012C224.566 55.1875 224.18 55.2383 223.852 55.3398C223.523 55.4414 223.254 55.5859 223.043 55.7734C222.832 55.9531 222.676 56.1641 222.574 56.4062C222.48 56.6484 222.434 56.9141 222.434 57.2031C222.434 57.4922 222.5 57.7539 222.633 57.9883C222.766 58.2148 222.957 58.3945 223.207 58.5273C223.457 58.6523 223.75 58.7148 224.086 58.7148C224.594 58.7148 225.035 58.6133 225.41 58.4102C225.785 58.207 226.074 57.957 226.277 57.6602C226.488 57.3633 226.598 57.082 226.605 56.8164L227.496 58.2461C227.371 58.5664 227.199 58.8984 226.98 59.2422C226.77 59.5859 226.5 59.9102 226.172 60.2148C225.844 60.5117 225.449 60.7578 224.988 60.9531C224.527 61.1406 223.98 61.2344 223.348 61.2344C222.543 61.2344 221.812 61.0742 221.156 60.7539C220.508 60.4258 219.992 59.9766 219.609 59.4062C219.234 58.8281 219.047 58.1719 219.047 57.4375C219.047 56.7734 219.172 56.1836 219.422 55.668C219.672 55.1523 220.039 54.7188 220.523 54.3672C221.016 54.0078 221.629 53.7383 222.363 53.5586C223.098 53.3711 223.949 53.2773 224.918 53.2773H226.875ZM235.992 43V61H232.605V43H235.992ZM242.543 59.5703L245.906 48.3203H249.527L244.43 62.9102C244.32 63.2305 244.172 63.5742 243.984 63.9414C243.805 64.3086 243.559 64.6562 243.246 64.9844C242.941 65.3203 242.555 65.5938 242.086 65.8047C241.625 66.0156 241.059 66.1211 240.387 66.1211C240.066 66.1211 239.805 66.1016 239.602 66.0625C239.398 66.0234 239.156 65.9688 238.875 65.8984V63.4258C238.961 63.4258 239.051 63.4258 239.145 63.4258C239.238 63.4336 239.328 63.4375 239.414 63.4375C239.859 63.4375 240.223 63.3867 240.504 63.2852C240.785 63.1836 241.012 63.0273 241.184 62.8164C241.355 62.6133 241.492 62.3477 241.594 62.0195L242.543 59.5703ZM241.137 48.3203L243.891 57.5078L244.371 61.082L242.074 61.3281L237.516 48.3203H241.137ZM257.73 57.4961C257.73 57.2539 257.66 57.0352 257.52 56.8398C257.379 56.6445 257.117 56.4648 256.734 56.3008C256.359 56.1289 255.816 55.9727 255.105 55.832C254.465 55.6914 253.867 55.5156 253.312 55.3047C252.766 55.0859 252.289 54.8242 251.883 54.5195C251.484 54.2148 251.172 53.8555 250.945 53.4414C250.719 53.0195 250.605 52.5391 250.605 52C250.605 51.4688 250.719 50.9688 250.945 50.5C251.18 50.0312 251.512 49.6172 251.941 49.2578C252.379 48.8906 252.91 48.6055 253.535 48.4023C254.168 48.1914 254.879 48.0859 255.668 48.0859C256.77 48.0859 257.715 48.2617 258.504 48.6133C259.301 48.9648 259.91 49.4492 260.332 50.0664C260.762 50.6758 260.977 51.3711 260.977 52.1523H257.602C257.602 51.8242 257.531 51.5312 257.391 51.2734C257.258 51.0078 257.047 50.8008 256.758 50.6523C256.477 50.4961 256.109 50.418 255.656 50.418C255.281 50.418 254.957 50.4844 254.684 50.6172C254.41 50.7422 254.199 50.9141 254.051 51.1328C253.91 51.3438 253.84 51.5781 253.84 51.8359C253.84 52.0312 253.879 52.207 253.957 52.3633C254.043 52.5117 254.18 52.6484 254.367 52.7734C254.555 52.8984 254.797 53.0156 255.094 53.125C255.398 53.2266 255.773 53.3203 256.219 53.4062C257.133 53.5938 257.949 53.8398 258.668 54.1445C259.387 54.4414 259.957 54.8477 260.379 55.3633C260.801 55.8711 261.012 56.5391 261.012 57.3672C261.012 57.9297 260.887 58.4453 260.637 58.9141C260.387 59.3828 260.027 59.793 259.559 60.1445C259.09 60.4883 258.527 60.7578 257.871 60.9531C257.223 61.1406 256.492 61.2344 255.68 61.2344C254.5 61.2344 253.5 61.0234 252.68 60.6016C251.867 60.1797 251.25 59.6445 250.828 58.9961C250.414 58.3398 250.207 57.668 250.207 56.9805H253.406C253.422 57.4414 253.539 57.8125 253.758 58.0938C253.984 58.375 254.27 58.5781 254.613 58.7031C254.965 58.8281 255.344 58.8906 255.75 58.8906C256.188 58.8906 256.551 58.832 256.84 58.7148C257.129 58.5898 257.348 58.4258 257.496 58.2227C257.652 58.0117 257.73 57.7695 257.73 57.4961ZM266.766 48.3203V61H263.379V48.3203H266.766ZM263.168 45.0156C263.168 44.5234 263.34 44.1172 263.684 43.7969C264.027 43.4766 264.488 43.3164 265.066 43.3164C265.637 43.3164 266.094 43.4766 266.438 43.7969C266.789 44.1172 266.965 44.5234 266.965 45.0156C266.965 45.5078 266.789 45.9141 266.438 46.2344C266.094 46.5547 265.637 46.7148 265.066 46.7148C264.488 46.7148 264.027 46.5547 263.684 46.2344C263.34 45.9141 263.168 45.5078 263.168 45.0156ZM276.41 57.4961C276.41 57.2539 276.34 57.0352 276.199 56.8398C276.059 56.6445 275.797 56.4648 275.414 56.3008C275.039 56.1289 274.496 55.9727 273.785 55.832C273.145 55.6914 272.547 55.5156 271.992 55.3047C271.445 55.0859 270.969 54.8242 270.562 54.5195C270.164 54.2148 269.852 53.8555 269.625 53.4414C269.398 53.0195 269.285 52.5391 269.285 52C269.285 51.4688 269.398 50.9688 269.625 50.5C269.859 50.0312 270.191 49.6172 270.621 49.2578C271.059 48.8906 271.59 48.6055 272.215 48.4023C272.848 48.1914 273.559 48.0859 274.348 48.0859C275.449 48.0859 276.395 48.2617 277.184 48.6133C277.98 48.9648 278.59 49.4492 279.012 50.0664C279.441 50.6758 279.656 51.3711 279.656 52.1523H276.281C276.281 51.8242 276.211 51.5312 276.07 51.2734C275.938 51.0078 275.727 50.8008 275.438 50.6523C275.156 50.4961 274.789 50.418 274.336 50.418C273.961 50.418 273.637 50.4844 273.363 50.6172C273.09 50.7422 272.879 50.9141 272.73 51.1328C272.59 51.3438 272.52 51.5781 272.52 51.8359C272.52 52.0312 272.559 52.207 272.637 52.3633C272.723 52.5117 272.859 52.6484 273.047 52.7734C273.234 52.8984 273.477 53.0156 273.773 53.125C274.078 53.2266 274.453 53.3203 274.898 53.4062C275.812 53.5938 276.629 53.8398 277.348 54.1445C278.066 54.4414 278.637 54.8477 279.059 55.3633C279.48 55.8711 279.691 56.5391 279.691 57.3672C279.691 57.9297 279.566 58.4453 279.316 58.9141C279.066 59.3828 278.707 59.793 278.238 60.1445C277.77 60.4883 277.207 60.7578 276.551 60.9531C275.902 61.1406 275.172 61.2344 274.359 61.2344C273.18 61.2344 272.18 61.0234 271.359 60.6016C270.547 60.1797 269.93 59.6445 269.508 58.9961C269.094 58.3398 268.887 57.668 268.887 56.9805H272.086C272.102 57.4414 272.219 57.8125 272.438 58.0938C272.664 58.375 272.949 58.5781 273.293 58.7031C273.645 58.8281 274.023 58.8906 274.43 58.8906C274.867 58.8906 275.23 58.832 275.52 58.7148C275.809 58.5898 276.027 58.4258 276.176 58.2227C276.332 58.0117 276.41 57.7695 276.41 57.4961Z" fill="#888888"/>
<path d="M109.219 107.422H100.734V101.07H109.219C110.375 101.07 111.312 100.875 112.031 100.484C112.75 100.094 113.273 99.5547 113.602 98.8672C113.945 98.1641 114.117 97.375 114.117 96.5C114.117 95.5625 113.945 94.6953 113.602 93.8984C113.273 93.1016 112.75 92.4609 112.031 91.9766C111.312 91.4766 110.375 91.2266 109.219 91.2266H103.828V119H95.6016V84.875H109.219C111.953 84.875 114.305 85.375 116.273 86.375C118.258 87.375 119.781 88.75 120.844 90.5C121.906 92.2344 122.438 94.2188 122.438 96.4531C122.438 98.6562 121.906 100.578 120.844 102.219C119.781 103.859 118.258 105.141 116.273 106.062C114.305 106.969 111.953 107.422 109.219 107.422ZM134.461 99.9219V119H126.562V93.6406H133.945L134.461 99.9219ZM141.961 93.4531L141.82 100.789C141.508 100.758 141.086 100.719 140.555 100.672C140.023 100.625 139.578 100.602 139.219 100.602C138.297 100.602 137.5 100.711 136.828 100.93C136.172 101.133 135.625 101.445 135.188 101.867C134.766 102.273 134.453 102.789 134.25 103.414C134.062 104.039 133.977 104.766 133.992 105.594L132.562 104.656C132.562 102.953 132.727 101.406 133.055 100.016C133.398 98.6094 133.883 97.3984 134.508 96.3828C135.133 95.3516 135.891 94.5625 136.781 94.0156C137.672 93.4531 138.672 93.1719 139.781 93.1719C140.172 93.1719 140.555 93.1953 140.93 93.2422C141.32 93.2891 141.664 93.3594 141.961 93.4531ZM142.852 106.578V106.086C142.852 104.227 143.117 102.516 143.648 100.953C144.18 99.375 144.961 98.0078 145.992 96.8516C147.023 95.6953 148.297 94.7969 149.812 94.1562C151.328 93.5 153.078 93.1719 155.062 93.1719C157.062 93.1719 158.82 93.5 160.336 94.1562C161.867 94.7969 163.148 95.6953 164.18 96.8516C165.211 98.0078 165.992 99.375 166.523 100.953C167.055 102.516 167.32 104.227 167.32 106.086V106.578C167.32 108.422 167.055 110.133 166.523 111.711C165.992 113.273 165.211 114.641 164.18 115.812C163.148 116.969 161.875 117.867 160.359 118.508C158.844 119.148 157.094 119.469 155.109 119.469C153.125 119.469 151.367 119.148 149.836 118.508C148.305 117.867 147.023 116.969 145.992 115.812C144.961 114.641 144.18 113.273 143.648 111.711C143.117 110.133 142.852 108.422 142.852 106.578ZM150.75 106.086V106.578C150.75 107.531 150.82 108.422 150.961 109.25C151.102 110.078 151.336 110.805 151.664 111.43C151.992 112.039 152.438 112.516 153 112.859C153.562 113.203 154.266 113.375 155.109 113.375C155.938 113.375 156.625 113.203 157.172 112.859C157.734 112.516 158.18 112.039 158.508 111.43C158.836 110.805 159.07 110.078 159.211 109.25C159.352 108.422 159.422 107.531 159.422 106.578V106.086C159.422 105.164 159.352 104.297 159.211 103.484C159.07 102.656 158.836 101.93 158.508 101.305C158.18 100.664 157.734 100.164 157.172 99.8047C156.609 99.4453 155.906 99.2656 155.062 99.2656C154.234 99.2656 153.539 99.4453 152.977 99.8047C152.43 100.164 151.992 100.664 151.664 101.305C151.336 101.93 151.102 102.656 150.961 103.484C150.82 104.297 150.75 105.164 150.75 106.086ZM184.195 93.6406V99.125H168.914V93.6406H184.195ZM172.125 87.3359H180.023V110.727C180.023 111.398 180.102 111.922 180.258 112.297C180.414 112.656 180.68 112.914 181.055 113.07C181.445 113.211 181.961 113.281 182.602 113.281C183.055 113.281 183.43 113.273 183.727 113.258C184.023 113.227 184.305 113.188 184.57 113.141V118.789C183.898 119.008 183.195 119.172 182.461 119.281C181.727 119.406 180.945 119.469 180.117 119.469C178.43 119.469 176.984 119.203 175.781 118.672C174.594 118.141 173.688 117.305 173.062 116.164C172.438 115.023 172.125 113.539 172.125 111.711V87.3359ZM185.648 106.578V106.086C185.648 104.227 185.914 102.516 186.445 100.953C186.977 99.375 187.758 98.0078 188.789 96.8516C189.82 95.6953 191.094 94.7969 192.609 94.1562C194.125 93.5 195.875 93.1719 197.859 93.1719C199.859 93.1719 201.617 93.5 203.133 94.1562C204.664 94.7969 205.945 95.6953 206.977 96.8516C208.008 98.0078 208.789 99.375 209.32 100.953C209.852 102.516 210.117 104.227 210.117 106.086V106.578C210.117 108.422 209.852 110.133 209.32 111.711C208.789 113.273 208.008 114.641 206.977 115.812C205.945 116.969 204.672 117.867 203.156 118.508C201.641 119.148 199.891 119.469 197.906 119.469C195.922 119.469 194.164 119.148 192.633 118.508C191.102 117.867 189.82 116.969 188.789 115.812C187.758 114.641 186.977 113.273 186.445 111.711C185.914 110.133 185.648 108.422 185.648 106.578ZM193.547 106.086V106.578C193.547 107.531 193.617 108.422 193.758 109.25C193.898 110.078 194.133 110.805 194.461 111.43C194.789 112.039 195.234 112.516 195.797 112.859C196.359 113.203 197.062 113.375 197.906 113.375C198.734 113.375 199.422 113.203 199.969 112.859C200.531 112.516 200.977 112.039 201.305 111.43C201.633 110.805 201.867 110.078 202.008 109.25C202.148 108.422 202.219 107.531 202.219 106.578V106.086C202.219 105.164 202.148 104.297 202.008 103.484C201.867 102.656 201.633 101.93 201.305 101.305C200.977 100.664 200.531 100.164 199.969 99.8047C199.406 99.4453 198.703 99.2656 197.859 99.2656C197.031 99.2656 196.336 99.4453 195.773 99.8047C195.227 100.164 194.789 100.664 194.461 101.305C194.133 101.93 193.898 102.656 193.758 103.484C193.617 104.297 193.547 105.164 193.547 106.086ZM226.992 93.6406V99.125H211.711V93.6406H226.992ZM214.922 87.3359H222.82V110.727C222.82 111.398 222.898 111.922 223.055 112.297C223.211 112.656 223.477 112.914 223.852 113.07C224.242 113.211 224.758 113.281 225.398 113.281C225.852 113.281 226.227 113.273 226.523 113.258C226.82 113.227 227.102 113.188 227.367 113.141V118.789C226.695 119.008 225.992 119.172 225.258 119.281C224.523 119.406 223.742 119.469 222.914 119.469C221.227 119.469 219.781 119.203 218.578 118.672C217.391 118.141 216.484 117.305 215.859 116.164C215.234 115.023 214.922 113.539 214.922 111.711V87.3359ZM237.914 116.023L244.477 93.6406H252.961L242.766 122.773C242.547 123.414 242.258 124.102 241.898 124.836C241.539 125.586 241.047 126.297 240.422 126.969C239.797 127.641 238.992 128.188 238.008 128.609C237.039 129.031 235.836 129.242 234.398 129.242C233.633 129.242 233.07 129.203 232.711 129.125C232.367 129.062 231.836 128.945 231.117 128.773V123.125C231.32 123.125 231.492 123.125 231.633 123.125C231.789 123.125 231.961 123.125 232.148 123.125C232.992 123.125 233.664 123.039 234.164 122.867C234.68 122.695 235.07 122.445 235.336 122.117C235.617 121.789 235.836 121.391 235.992 120.922L237.914 116.023ZM236.25 93.6406L241.242 111.383L242.109 119.75H236.812L227.789 93.6406H236.25ZM262.992 98.5156V128.75H255.094V93.6406H262.453L262.992 98.5156ZM278.555 106.016V106.508C278.555 108.352 278.344 110.062 277.922 111.641C277.5 113.219 276.875 114.594 276.047 115.766C275.219 116.938 274.188 117.852 272.953 118.508C271.734 119.148 270.32 119.469 268.711 119.469C267.195 119.469 265.891 119.133 264.797 118.461C263.703 117.789 262.789 116.859 262.055 115.672C261.32 114.484 260.727 113.125 260.273 111.594C259.82 110.062 259.461 108.445 259.195 106.742V106.109C259.461 104.281 259.82 102.586 260.273 101.023C260.727 99.4453 261.32 98.0703 262.055 96.8984C262.789 95.7266 263.695 94.8125 264.773 94.1562C265.867 93.5 267.172 93.1719 268.688 93.1719C270.297 93.1719 271.711 93.4766 272.93 94.0859C274.164 94.6953 275.195 95.5703 276.023 96.7109C276.867 97.8359 277.5 99.1875 277.922 100.766C278.344 102.344 278.555 104.094 278.555 106.016ZM270.656 106.508V106.016C270.656 105.031 270.586 104.133 270.445 103.32C270.305 102.492 270.078 101.773 269.766 101.164C269.469 100.555 269.07 100.086 268.57 99.7578C268.07 99.4297 267.453 99.2656 266.719 99.2656C265.875 99.2656 265.164 99.3984 264.586 99.6641C264.023 99.9141 263.57 100.305 263.227 100.836C262.898 101.352 262.664 102 262.523 102.781C262.398 103.547 262.344 104.445 262.359 105.477V107.398C262.328 108.586 262.445 109.633 262.711 110.539C262.977 111.43 263.438 112.125 264.094 112.625C264.75 113.125 265.641 113.375 266.766 113.375C267.516 113.375 268.141 113.203 268.641 112.859C269.141 112.5 269.539 112.008 269.836 111.383C270.133 110.742 270.344 110.008 270.469 109.18C270.594 108.352 270.656 107.461 270.656 106.508ZM290.414 93.6406V119H282.492V93.6406H290.414ZM282.023 87.1016C282.023 85.9766 282.43 85.0547 283.242 84.3359C284.055 83.6172 285.109 83.2578 286.406 83.2578C287.703 83.2578 288.758 83.6172 289.57 84.3359C290.383 85.0547 290.789 85.9766 290.789 87.1016C290.789 88.2266 290.383 89.1484 289.57 89.8672C288.758 90.5859 287.703 90.9453 286.406 90.9453C285.109 90.9453 284.055 90.5859 283.242 89.8672C282.43 89.1484 282.023 88.2266 282.023 87.1016ZM303.047 99.0547V119H295.148V93.6406H302.555L303.047 99.0547ZM302.109 105.453L300.258 105.5C300.258 103.562 300.492 101.836 300.961 100.32C301.43 98.7891 302.094 97.4922 302.953 96.4297C303.812 95.3672 304.836 94.5625 306.023 94.0156C307.227 93.4531 308.562 93.1719 310.031 93.1719C311.203 93.1719 312.273 93.3438 313.242 93.6875C314.227 94.0312 315.07 94.5859 315.773 95.3516C316.492 96.1172 317.039 97.1328 317.414 98.3984C317.805 99.6484 318 101.195 318 103.039V119H310.055V103.016C310.055 102 309.914 101.227 309.633 100.695C309.352 100.148 308.945 99.7734 308.414 99.5703C307.883 99.3672 307.234 99.2656 306.469 99.2656C305.656 99.2656 304.969 99.4219 304.406 99.7344C303.844 100.047 303.391 100.484 303.047 101.047C302.719 101.594 302.477 102.242 302.32 102.992C302.18 103.742 302.109 104.562 302.109 105.453ZM338.32 93.6406H345.492V118.016C345.492 120.359 344.953 122.344 343.875 123.969C342.797 125.609 341.289 126.852 339.352 127.695C337.43 128.555 335.18 128.984 332.602 128.984C331.461 128.984 330.297 128.836 329.109 128.539C327.922 128.258 326.812 127.836 325.781 127.273C324.75 126.711 323.883 126.016 323.18 125.188L326.484 120.547C327.125 121.266 327.93 121.875 328.898 122.375C329.867 122.891 331.008 123.148 332.32 123.148C333.461 123.148 334.414 122.945 335.18 122.539C335.961 122.133 336.555 121.539 336.961 120.758C337.367 119.992 337.57 119.062 337.57 117.969V99.6406L338.32 93.6406ZM321.469 106.625V106.133C321.469 104.211 321.703 102.461 322.172 100.883C322.656 99.2891 323.344 97.9219 324.234 96.7812C325.141 95.625 326.234 94.7344 327.516 94.1094C328.797 93.4844 330.242 93.1719 331.852 93.1719C333.586 93.1719 335.008 93.5078 336.117 94.1797C337.242 94.8359 338.141 95.7578 338.812 96.9453C339.5 98.1328 340.031 99.5234 340.406 101.117C340.797 102.695 341.125 104.398 341.391 106.227V106.812C341.125 108.531 340.758 110.156 340.289 111.688C339.836 113.203 339.242 114.547 338.508 115.719C337.773 116.891 336.852 117.812 335.742 118.484C334.648 119.141 333.336 119.469 331.805 119.469C330.211 119.469 328.773 119.148 327.492 118.508C326.227 117.867 325.141 116.969 324.234 115.812C323.344 114.656 322.656 113.297 322.172 111.734C321.703 110.172 321.469 108.469 321.469 106.625ZM329.367 106.133V106.625C329.367 107.578 329.453 108.461 329.625 109.273C329.812 110.086 330.094 110.805 330.469 111.43C330.844 112.039 331.305 112.516 331.852 112.859C332.414 113.203 333.07 113.375 333.82 113.375C334.961 113.375 335.883 113.133 336.586 112.648C337.289 112.164 337.797 111.477 338.109 110.586C338.422 109.695 338.555 108.648 338.508 107.445V105.594C338.539 104.562 338.469 103.656 338.297 102.875C338.125 102.078 337.852 101.414 337.477 100.883C337.117 100.352 336.633 99.9531 336.023 99.6875C335.43 99.4062 334.711 99.2656 333.867 99.2656C333.133 99.2656 332.484 99.4375 331.922 99.7812C331.359 100.125 330.891 100.609 330.516 101.234C330.141 101.844 329.852 102.57 329.648 103.414C329.461 104.242 329.367 105.148 329.367 106.133Z" fill="black"/>
<path d="M1134 0H1348C1356.28 0 1363 6.71573 1363 15V148C1363 156.284 1356.28 163 1348 163H1134V0Z" fill="#F25B5F"/>
<path fill-rule="evenodd" clip-rule="evenodd" d="M1202.75 46.5018C1202.75 45.3973 1203.65 44.5018 1204.75 44.5018H1292.25C1293.35 44.5018 1294.25 45.3973 1294.25 46.5018V116.498C1294.25 117.603 1293.35 118.498 1292.25 118.498H1204.75C1203.65 118.498 1202.75 117.603 1202.75 116.498V46.5018ZM1206.75 48.5018V52.9963H1290.25V48.5018H1206.75ZM1290.25 56.9963H1235.19V114.498H1290.25V56.9963ZM1231.19 114.498V56.9963H1206.75V114.498H1231.19Z" fill="white"/>
<path fill-rule="evenodd" clip-rule="evenodd" d="M1209.72 62.3022C1209.72 61.1976 1210.62 60.3022 1211.72 60.3022H1225.72C1226.83 60.3022 1227.72 61.1976 1227.72 62.3022V81.6974C1227.72 82.802 1226.83 83.6974 1225.72 83.6974H1211.72C1210.62 83.6974 1209.72 82.802 1209.72 81.6974V62.3022ZM1213.72 64.3022V79.6974H1223.72V64.3022H1213.72ZM1239.33 63.1982C1239.33 62.0936 1240.22 61.1982 1241.33 61.1982H1284.25C1285.36 61.1982 1286.25 62.0936 1286.25 63.1982V109.407C1286.25 110.511 1285.36 111.407 1284.25 111.407H1241.33C1240.22 111.407 1239.33 110.511 1239.33 109.407V63.1982ZM1243.33 65.1982V107.407H1282.25V65.1982H1243.33ZM1209.56 93.4381C1209.56 92.3336 1210.46 91.4381 1211.56 91.4381H1220.48C1221.59 91.4381 1222.48 92.3336 1222.48 93.4381C1222.48 94.5427 1221.59 95.4381 1220.48 95.4381H1211.56C1210.46 95.4381 1209.56 94.5427 1209.56 93.4381ZM1209.56 100.438C1209.56 99.3335 1210.46 98.4381 1211.56 98.4381H1226.1C1227.21 98.4381 1228.1 99.3335 1228.1 100.438C1228.1 101.543 1227.21 102.438 1226.1 102.438H1211.56C1210.46 102.438 1209.56 101.543 1209.56 100.438ZM1209.56 107.438C1209.56 106.334 1210.46 105.438 1211.56 105.438H1220.48C1221.59 105.438 1222.48 106.334 1222.48 107.438C1222.48 108.543 1221.59 109.438 1220.48 109.438H1211.56C1210.46 109.438 1209.56 108.543 1209.56 107.438Z" fill="white"/>
</svg>
