<svg width="1363" height="163" viewBox="0 0 1363 163" fill="none" xmlns="http://www.w3.org/2000/svg">
<path d="M0 15C0 6.71573 6.71573 0 15 0H37V163H15C6.71573 163 0 156.284 0 148V15Z" fill="#F25B5F"/>
<rect width="1097" height="163" transform="translate(37)" fill="#F0F0F0"/>
<path d="M101.906 53.9219L94.3945 51.2383V48.0859L104.602 52.375V54.6367L101.906 53.9219ZM94.3945 56.1719L101.918 53.4297L104.602 52.7852V55.0352L94.3945 59.3242V56.1719ZM119.836 46.8555L115.195 61H111.457L117.797 43.9375H120.176L119.836 46.8555ZM123.691 61L119.039 46.8555L118.664 43.9375H121.066L127.441 61H123.691ZM123.48 54.6484V57.4023H114.469V54.6484H123.48ZM132.375 48.3203V61H128.988V48.3203H132.375ZM128.777 45.0156C128.777 44.5234 128.949 44.1172 129.293 43.7969C129.637 43.4766 130.098 43.3164 130.676 43.3164C131.246 43.3164 131.703 43.4766 132.047 43.7969C132.398 44.1172 132.574 44.5234 132.574 45.0156C132.574 45.5078 132.398 45.9141 132.047 46.2344C131.703 46.5547 131.246 46.7148 130.676 46.7148C130.098 46.7148 129.637 46.5547 129.293 46.2344C128.949 45.9141 128.777 45.5078 128.777 45.0156ZM138.539 51.0859V61H135.164V48.3203H138.34L138.539 51.0859ZM142.359 48.2383L142.301 51.3672C142.137 51.3438 141.938 51.3242 141.703 51.3086C141.477 51.2852 141.27 51.2734 141.082 51.2734C140.605 51.2734 140.191 51.3359 139.84 51.4609C139.496 51.5781 139.207 51.7539 138.973 51.9883C138.746 52.2227 138.574 52.5078 138.457 52.8438C138.348 53.1797 138.285 53.5625 138.27 53.9922L137.59 53.7812C137.59 52.9609 137.672 52.207 137.836 51.5195C138 50.8242 138.238 50.2188 138.551 49.7031C138.871 49.1875 139.262 48.7891 139.723 48.5078C140.184 48.2266 140.711 48.0859 141.305 48.0859C141.492 48.0859 141.684 48.1016 141.879 48.1328C142.074 48.1562 142.234 48.1914 142.359 48.2383ZM143.953 43H147.328V58.0938L146.988 61H143.953V43ZM155.355 54.5312V54.7773C155.355 55.7227 155.254 56.5898 155.051 57.3789C154.855 58.168 154.551 58.8516 154.137 59.4297C153.723 60 153.207 60.4453 152.59 60.7656C151.98 61.0781 151.262 61.2344 150.434 61.2344C149.66 61.2344 148.988 61.0781 148.418 60.7656C147.855 60.4531 147.383 60.0117 147 59.4414C146.617 58.8711 146.309 58.2031 146.074 57.4375C145.84 56.6719 145.664 55.8359 145.547 54.9297V54.3906C145.664 53.4844 145.84 52.6484 146.074 51.8828C146.309 51.1172 146.617 50.4492 147 49.8789C147.383 49.3086 147.855 48.8672 148.418 48.5547C148.98 48.2422 149.645 48.0859 150.41 48.0859C151.246 48.0859 151.973 48.2461 152.59 48.5664C153.215 48.8789 153.73 49.3242 154.137 49.9023C154.551 50.4727 154.855 51.1523 155.051 51.9414C155.254 52.7227 155.355 53.5859 155.355 54.5312ZM151.98 54.7773V54.5312C151.98 54.0156 151.941 53.5312 151.863 53.0781C151.793 52.6172 151.668 52.2148 151.488 51.8711C151.309 51.5195 151.062 51.2422 150.75 51.0391C150.445 50.8359 150.051 50.7344 149.566 50.7344C149.105 50.7344 148.715 50.8125 148.395 50.9688C148.074 51.125 147.809 51.3438 147.598 51.625C147.395 51.9062 147.242 52.2422 147.141 52.6328C147.039 53.0156 146.977 53.4375 146.953 53.8984V55.4336C146.977 56.0508 147.078 56.5977 147.258 57.0742C147.445 57.543 147.727 57.9141 148.102 58.1875C148.484 58.4531 148.98 58.5859 149.59 58.5859C150.066 58.5859 150.461 58.4922 150.773 58.3047C151.086 58.1172 151.328 57.8516 151.5 57.5078C151.68 57.1641 151.805 56.7617 151.875 56.3008C151.945 55.832 151.98 55.3242 151.98 54.7773ZM160.758 51.0273V61H157.383V48.3203H160.547L160.758 51.0273ZM160.266 54.2148H159.352C159.352 53.2773 159.473 52.4336 159.715 51.6836C159.957 50.9258 160.297 50.2812 160.734 49.75C161.172 49.2109 161.691 48.8008 162.293 48.5195C162.902 48.2305 163.582 48.0859 164.332 48.0859C164.926 48.0859 165.469 48.1719 165.961 48.3438C166.453 48.5156 166.875 48.7891 167.227 49.1641C167.586 49.5391 167.859 50.0352 168.047 50.6523C168.242 51.2695 168.34 52.0234 168.34 52.9141V61H164.941V52.9023C164.941 52.3398 164.863 51.9023 164.707 51.5898C164.551 51.2773 164.32 51.0586 164.016 50.9336C163.719 50.8008 163.352 50.7344 162.914 50.7344C162.461 50.7344 162.066 50.8242 161.73 51.0039C161.402 51.1836 161.129 51.4336 160.91 51.7539C160.699 52.0664 160.539 52.4336 160.43 52.8555C160.32 53.2773 160.266 53.7305 160.266 54.2148ZM170.906 43H174.281V58.0938L173.941 61H170.906V43ZM182.309 54.5312V54.7773C182.309 55.7227 182.207 56.5898 182.004 57.3789C181.809 58.168 181.504 58.8516 181.09 59.4297C180.676 60 180.16 60.4453 179.543 60.7656C178.934 61.0781 178.215 61.2344 177.387 61.2344C176.613 61.2344 175.941 61.0781 175.371 60.7656C174.809 60.4531 174.336 60.0117 173.953 59.4414C173.57 58.8711 173.262 58.2031 173.027 57.4375C172.793 56.6719 172.617 55.8359 172.5 54.9297V54.3906C172.617 53.4844 172.793 52.6484 173.027 51.8828C173.262 51.1172 173.57 50.4492 173.953 49.8789C174.336 49.3086 174.809 48.8672 175.371 48.5547C175.934 48.2422 176.598 48.0859 177.363 48.0859C178.199 48.0859 178.926 48.2461 179.543 48.5664C180.168 48.8789 180.684 49.3242 181.09 49.9023C181.504 50.4727 181.809 51.1523 182.004 51.9414C182.207 52.7227 182.309 53.5859 182.309 54.5312ZM178.934 54.7773V54.5312C178.934 54.0156 178.895 53.5312 178.816 53.0781C178.746 52.6172 178.621 52.2148 178.441 51.8711C178.262 51.5195 178.016 51.2422 177.703 51.0391C177.398 50.8359 177.004 50.7344 176.52 50.7344C176.059 50.7344 175.668 50.8125 175.348 50.9688C175.027 51.125 174.762 51.3438 174.551 51.625C174.348 51.9062 174.195 52.2422 174.094 52.6328C173.992 53.0156 173.93 53.4375 173.906 53.8984V55.4336C173.93 56.0508 174.031 56.5977 174.211 57.0742C174.398 57.543 174.68 57.9141 175.055 58.1875C175.438 58.4531 175.934 58.5859 176.543 58.5859C177.02 58.5859 177.414 58.4922 177.727 58.3047C178.039 58.1172 178.281 57.8516 178.453 57.5078C178.633 57.1641 178.758 56.7617 178.828 56.3008C178.898 55.832 178.934 55.3242 178.934 54.7773ZM197.531 46.8555L192.891 61H189.152L195.492 43.9375H197.871L197.531 46.8555ZM201.387 61L196.734 46.8555L196.359 43.9375H198.762L205.137 61H201.387ZM201.176 54.6484V57.4023H192.164V54.6484H201.176ZM209.438 51.0273V61H206.062V48.3203H209.227L209.438 51.0273ZM208.945 54.2148H208.031C208.031 53.2773 208.152 52.4336 208.395 51.6836C208.637 50.9258 208.977 50.2812 209.414 49.75C209.852 49.2109 210.371 48.8008 210.973 48.5195C211.582 48.2305 212.262 48.0859 213.012 48.0859C213.605 48.0859 214.148 48.1719 214.641 48.3438C215.133 48.5156 215.555 48.7891 215.906 49.1641C216.266 49.5391 216.539 50.0352 216.727 50.6523C216.922 51.2695 217.02 52.0234 217.02 52.9141V61H213.621V52.9023C213.621 52.3398 213.543 51.9023 213.387 51.5898C213.23 51.2773 213 51.0586 212.695 50.9336C212.398 50.8008 212.031 50.7344 211.594 50.7344C211.141 50.7344 210.746 50.8242 210.41 51.0039C210.082 51.1836 209.809 51.4336 209.59 51.7539C209.379 52.0664 209.219 52.4336 209.109 52.8555C209 53.2773 208.945 53.7305 208.945 54.2148ZM226.43 58.1406V52.4922C226.43 52.0859 226.363 51.7383 226.23 51.4492C226.098 51.1523 225.891 50.9219 225.609 50.7578C225.336 50.5938 224.98 50.5117 224.543 50.5117C224.168 50.5117 223.844 50.5781 223.57 50.7109C223.297 50.8359 223.086 51.0195 222.938 51.2617C222.789 51.4961 222.715 51.7734 222.715 52.0938H219.34C219.34 51.5547 219.465 51.043 219.715 50.5586C219.965 50.0742 220.328 49.6484 220.805 49.2812C221.281 48.9062 221.848 48.6133 222.504 48.4023C223.168 48.1914 223.91 48.0859 224.73 48.0859C225.715 48.0859 226.59 48.25 227.355 48.5781C228.121 48.9062 228.723 49.3984 229.16 50.0547C229.605 50.7109 229.828 51.5312 229.828 52.5156V57.9414C229.828 58.6367 229.871 59.207 229.957 59.6523C230.043 60.0898 230.168 60.4727 230.332 60.8008V61H226.922C226.758 60.6562 226.633 60.2266 226.547 59.7109C226.469 59.1875 226.43 58.6641 226.43 58.1406ZM226.875 53.2773L226.898 55.1875H225.012C224.566 55.1875 224.18 55.2383 223.852 55.3398C223.523 55.4414 223.254 55.5859 223.043 55.7734C222.832 55.9531 222.676 56.1641 222.574 56.4062C222.48 56.6484 222.434 56.9141 222.434 57.2031C222.434 57.4922 222.5 57.7539 222.633 57.9883C222.766 58.2148 222.957 58.3945 223.207 58.5273C223.457 58.6523 223.75 58.7148 224.086 58.7148C224.594 58.7148 225.035 58.6133 225.41 58.4102C225.785 58.207 226.074 57.957 226.277 57.6602C226.488 57.3633 226.598 57.082 226.605 56.8164L227.496 58.2461C227.371 58.5664 227.199 58.8984 226.98 59.2422C226.77 59.5859 226.5 59.9102 226.172 60.2148C225.844 60.5117 225.449 60.7578 224.988 60.9531C224.527 61.1406 223.98 61.2344 223.348 61.2344C222.543 61.2344 221.812 61.0742 221.156 60.7539C220.508 60.4258 219.992 59.9766 219.609 59.4062C219.234 58.8281 219.047 58.1719 219.047 57.4375C219.047 56.7734 219.172 56.1836 219.422 55.668C219.672 55.1523 220.039 54.7188 220.523 54.3672C221.016 54.0078 221.629 53.7383 222.363 53.5586C223.098 53.3711 223.949 53.2773 224.918 53.2773H226.875ZM235.992 43V61H232.605V43H235.992ZM242.543 59.5703L245.906 48.3203H249.527L244.43 62.9102C244.32 63.2305 244.172 63.5742 243.984 63.9414C243.805 64.3086 243.559 64.6562 243.246 64.9844C242.941 65.3203 242.555 65.5938 242.086 65.8047C241.625 66.0156 241.059 66.1211 240.387 66.1211C240.066 66.1211 239.805 66.1016 239.602 66.0625C239.398 66.0234 239.156 65.9688 238.875 65.8984V63.4258C238.961 63.4258 239.051 63.4258 239.145 63.4258C239.238 63.4336 239.328 63.4375 239.414 63.4375C239.859 63.4375 240.223 63.3867 240.504 63.2852C240.785 63.1836 241.012 63.0273 241.184 62.8164C241.355 62.6133 241.492 62.3477 241.594 62.0195L242.543 59.5703ZM241.137 48.3203L243.891 57.5078L244.371 61.082L242.074 61.3281L237.516 48.3203H241.137ZM257.73 57.4961C257.73 57.2539 257.66 57.0352 257.52 56.8398C257.379 56.6445 257.117 56.4648 256.734 56.3008C256.359 56.1289 255.816 55.9727 255.105 55.832C254.465 55.6914 253.867 55.5156 253.312 55.3047C252.766 55.0859 252.289 54.8242 251.883 54.5195C251.484 54.2148 251.172 53.8555 250.945 53.4414C250.719 53.0195 250.605 52.5391 250.605 52C250.605 51.4688 250.719 50.9688 250.945 50.5C251.18 50.0312 251.512 49.6172 251.941 49.2578C252.379 48.8906 252.91 48.6055 253.535 48.4023C254.168 48.1914 254.879 48.0859 255.668 48.0859C256.77 48.0859 257.715 48.2617 258.504 48.6133C259.301 48.9648 259.91 49.4492 260.332 50.0664C260.762 50.6758 260.977 51.3711 260.977 52.1523H257.602C257.602 51.8242 257.531 51.5312 257.391 51.2734C257.258 51.0078 257.047 50.8008 256.758 50.6523C256.477 50.4961 256.109 50.418 255.656 50.418C255.281 50.418 254.957 50.4844 254.684 50.6172C254.41 50.7422 254.199 50.9141 254.051 51.1328C253.91 51.3438 253.84 51.5781 253.84 51.8359C253.84 52.0312 253.879 52.207 253.957 52.3633C254.043 52.5117 254.18 52.6484 254.367 52.7734C254.555 52.8984 254.797 53.0156 255.094 53.125C255.398 53.2266 255.773 53.3203 256.219 53.4062C257.133 53.5938 257.949 53.8398 258.668 54.1445C259.387 54.4414 259.957 54.8477 260.379 55.3633C260.801 55.8711 261.012 56.5391 261.012 57.3672C261.012 57.9297 260.887 58.4453 260.637 58.9141C260.387 59.3828 260.027 59.793 259.559 60.1445C259.09 60.4883 258.527 60.7578 257.871 60.9531C257.223 61.1406 256.492 61.2344 255.68 61.2344C254.5 61.2344 253.5 61.0234 252.68 60.6016C251.867 60.1797 251.25 59.6445 250.828 58.9961C250.414 58.3398 250.207 57.668 250.207 56.9805H253.406C253.422 57.4414 253.539 57.8125 253.758 58.0938C253.984 58.375 254.27 58.5781 254.613 58.7031C254.965 58.8281 255.344 58.8906 255.75 58.8906C256.188 58.8906 256.551 58.832 256.84 58.7148C257.129 58.5898 257.348 58.4258 257.496 58.2227C257.652 58.0117 257.73 57.7695 257.73 57.4961ZM266.766 48.3203V61H263.379V48.3203H266.766ZM263.168 45.0156C263.168 44.5234 263.34 44.1172 263.684 43.7969C264.027 43.4766 264.488 43.3164 265.066 43.3164C265.637 43.3164 266.094 43.4766 266.438 43.7969C266.789 44.1172 266.965 44.5234 266.965 45.0156C266.965 45.5078 266.789 45.9141 266.438 46.2344C266.094 46.5547 265.637 46.7148 265.066 46.7148C264.488 46.7148 264.027 46.5547 263.684 46.2344C263.34 45.9141 263.168 45.5078 263.168 45.0156ZM276.41 57.4961C276.41 57.2539 276.34 57.0352 276.199 56.8398C276.059 56.6445 275.797 56.4648 275.414 56.3008C275.039 56.1289 274.496 55.9727 273.785 55.832C273.145 55.6914 272.547 55.5156 271.992 55.3047C271.445 55.0859 270.969 54.8242 270.562 54.5195C270.164 54.2148 269.852 53.8555 269.625 53.4414C269.398 53.0195 269.285 52.5391 269.285 52C269.285 51.4688 269.398 50.9688 269.625 50.5C269.859 50.0312 270.191 49.6172 270.621 49.2578C271.059 48.8906 271.59 48.6055 272.215 48.4023C272.848 48.1914 273.559 48.0859 274.348 48.0859C275.449 48.0859 276.395 48.2617 277.184 48.6133C277.98 48.9648 278.59 49.4492 279.012 50.0664C279.441 50.6758 279.656 51.3711 279.656 52.1523H276.281C276.281 51.8242 276.211 51.5312 276.07 51.2734C275.938 51.0078 275.727 50.8008 275.438 50.6523C275.156 50.4961 274.789 50.418 274.336 50.418C273.961 50.418 273.637 50.4844 273.363 50.6172C273.09 50.7422 272.879 50.9141 272.73 51.1328C272.59 51.3438 272.52 51.5781 272.52 51.8359C272.52 52.0312 272.559 52.207 272.637 52.3633C272.723 52.5117 272.859 52.6484 273.047 52.7734C273.234 52.8984 273.477 53.0156 273.773 53.125C274.078 53.2266 274.453 53.3203 274.898 53.4062C275.812 53.5938 276.629 53.8398 277.348 54.1445C278.066 54.4414 278.637 54.8477 279.059 55.3633C279.48 55.8711 279.691 56.5391 279.691 57.3672C279.691 57.9297 279.566 58.4453 279.316 58.9141C279.066 59.3828 278.707 59.793 278.238 60.1445C277.77 60.4883 277.207 60.7578 276.551 60.9531C275.902 61.1406 275.172 61.2344 274.359 61.2344C273.18 61.2344 272.18 61.0234 271.359 60.6016C270.547 60.1797 269.93 59.6445 269.508 58.9961C269.094 58.3398 268.887 57.668 268.887 56.9805H272.086C272.102 57.4414 272.219 57.8125 272.438 58.0938C272.664 58.375 272.949 58.5781 273.293 58.7031C273.645 58.8281 274.023 58.8906 274.43 58.8906C274.867 58.8906 275.23 58.832 275.52 58.7148C275.809 58.5898 276.027 58.4258 276.176 58.2227C276.332 58.0117 276.41 57.7695 276.41 57.4961Z" fill="#888888"/>
<path d="M104.344 84.875V119H96.1406V84.875H104.344ZM117.727 99.0078V119H109.828V93.6406H117.234L117.727 99.0078ZM116.766 105.453L114.961 105.5C114.961 103.719 115.172 102.078 115.594 100.578C116.016 99.0781 116.641 97.7734 117.469 96.6641C118.297 95.5547 119.312 94.6953 120.516 94.0859C121.734 93.4766 123.141 93.1719 124.734 93.1719C125.844 93.1719 126.852 93.3438 127.758 93.6875C128.664 94.0156 129.445 94.5391 130.102 95.2578C130.758 95.9609 131.258 96.8828 131.602 98.0234C131.961 99.1484 132.141 100.5 132.141 102.078V119H124.242V103.086C124.242 102.008 124.117 101.195 123.867 100.648C123.633 100.102 123.289 99.7344 122.836 99.5469C122.383 99.3594 121.828 99.2656 121.172 99.2656C120.484 99.2656 119.867 99.4219 119.32 99.7344C118.773 100.047 118.305 100.484 117.914 101.047C117.539 101.594 117.25 102.242 117.047 102.992C116.859 103.742 116.766 104.562 116.766 105.453ZM131.25 105.453L129.047 105.5C129.047 103.719 129.242 102.078 129.633 100.578C130.039 99.0781 130.641 97.7734 131.438 96.6641C132.25 95.5547 133.258 94.6953 134.461 94.0859C135.664 93.4766 137.062 93.1719 138.656 93.1719C139.812 93.1719 140.875 93.3438 141.844 93.6875C142.812 94.0312 143.648 94.5859 144.352 95.3516C145.055 96.1172 145.602 97.1328 145.992 98.3984C146.383 99.6484 146.578 101.195 146.578 103.039V119H138.656V103.039C138.656 101.992 138.531 101.203 138.281 100.672C138.047 100.125 137.703 99.7578 137.25 99.5703C136.797 99.3672 136.258 99.2656 135.633 99.2656C134.883 99.2656 134.234 99.4219 133.688 99.7344C133.141 100.047 132.68 100.484 132.305 101.047C131.945 101.594 131.68 102.242 131.508 102.992C131.336 103.742 131.25 104.562 131.25 105.453ZM159.07 98.5156V128.75H151.172V93.6406H158.531L159.07 98.5156ZM174.633 106.016V106.508C174.633 108.352 174.422 110.062 174 111.641C173.578 113.219 172.953 114.594 172.125 115.766C171.297 116.938 170.266 117.852 169.031 118.508C167.812 119.148 166.398 119.469 164.789 119.469C163.273 119.469 161.969 119.133 160.875 118.461C159.781 117.789 158.867 116.859 158.133 115.672C157.398 114.484 156.805 113.125 156.352 111.594C155.898 110.062 155.539 108.445 155.273 106.742V106.109C155.539 104.281 155.898 102.586 156.352 101.023C156.805 99.4453 157.398 98.0703 158.133 96.8984C158.867 95.7266 159.773 94.8125 160.852 94.1562C161.945 93.5 163.25 93.1719 164.766 93.1719C166.375 93.1719 167.789 93.4766 169.008 94.0859C170.242 94.6953 171.273 95.5703 172.102 96.7109C172.945 97.8359 173.578 99.1875 174 100.766C174.422 102.344 174.633 104.094 174.633 106.016ZM166.734 106.508V106.016C166.734 105.031 166.664 104.133 166.523 103.32C166.383 102.492 166.156 101.773 165.844 101.164C165.547 100.555 165.148 100.086 164.648 99.7578C164.148 99.4297 163.531 99.2656 162.797 99.2656C161.953 99.2656 161.242 99.3984 160.664 99.6641C160.102 99.9141 159.648 100.305 159.305 100.836C158.977 101.352 158.742 102 158.602 102.781C158.477 103.547 158.422 104.445 158.438 105.477V107.398C158.406 108.586 158.523 109.633 158.789 110.539C159.055 111.43 159.516 112.125 160.172 112.625C160.828 113.125 161.719 113.375 162.844 113.375C163.594 113.375 164.219 113.203 164.719 112.859C165.219 112.5 165.617 112.008 165.914 111.383C166.211 110.742 166.422 110.008 166.547 109.18C166.672 108.352 166.734 107.461 166.734 106.508ZM186.492 83V119H178.57V83H186.492ZM203.648 119.469C201.586 119.469 199.742 119.148 198.117 118.508C196.492 117.852 195.117 116.953 193.992 115.812C192.883 114.672 192.031 113.359 191.438 111.875C190.859 110.391 190.57 108.82 190.57 107.164V106.273C190.57 104.414 190.828 102.695 191.344 101.117C191.859 99.5234 192.625 98.1328 193.641 96.9453C194.656 95.7578 195.93 94.8359 197.461 94.1797C198.992 93.5078 200.773 93.1719 202.805 93.1719C204.602 93.1719 206.211 93.4609 207.633 94.0391C209.055 94.6172 210.258 95.4453 211.242 96.5234C212.242 97.6016 213 98.9062 213.516 100.438C214.047 101.969 214.312 103.688 214.312 105.594V108.805H193.594V103.859H206.602V103.25C206.617 102.406 206.469 101.688 206.156 101.094C205.859 100.5 205.422 100.047 204.844 99.7344C204.266 99.4219 203.562 99.2656 202.734 99.2656C201.875 99.2656 201.164 99.4531 200.602 99.8281C200.055 100.203 199.625 100.719 199.312 101.375C199.016 102.016 198.805 102.758 198.68 103.602C198.555 104.445 198.492 105.336 198.492 106.273V107.164C198.492 108.102 198.617 108.953 198.867 109.719C199.133 110.484 199.508 111.141 199.992 111.688C200.492 112.219 201.086 112.633 201.773 112.93C202.477 113.227 203.273 113.375 204.164 113.375C205.242 113.375 206.305 113.172 207.352 112.766C208.398 112.359 209.297 111.688 210.047 110.75L213.633 115.016C213.117 115.75 212.383 116.461 211.43 117.148C210.492 117.836 209.367 118.398 208.055 118.836C206.742 119.258 205.273 119.469 203.648 119.469ZM225.492 99.0078V119H217.594V93.6406H225L225.492 99.0078ZM224.531 105.453L222.727 105.5C222.727 103.719 222.938 102.078 223.359 100.578C223.781 99.0781 224.406 97.7734 225.234 96.6641C226.062 95.5547 227.078 94.6953 228.281 94.0859C229.5 93.4766 230.906 93.1719 232.5 93.1719C233.609 93.1719 234.617 93.3438 235.523 93.6875C236.43 94.0156 237.211 94.5391 237.867 95.2578C238.523 95.9609 239.023 96.8828 239.367 98.0234C239.727 99.1484 239.906 100.5 239.906 102.078V119H232.008V103.086C232.008 102.008 231.883 101.195 231.633 100.648C231.398 100.102 231.055 99.7344 230.602 99.5469C230.148 99.3594 229.594 99.2656 228.938 99.2656C228.25 99.2656 227.633 99.4219 227.086 99.7344C226.539 100.047 226.07 100.484 225.68 101.047C225.305 101.594 225.016 102.242 224.812 102.992C224.625 103.742 224.531 104.562 224.531 105.453ZM239.016 105.453L236.812 105.5C236.812 103.719 237.008 102.078 237.398 100.578C237.805 99.0781 238.406 97.7734 239.203 96.6641C240.016 95.5547 241.023 94.6953 242.227 94.0859C243.43 93.4766 244.828 93.1719 246.422 93.1719C247.578 93.1719 248.641 93.3438 249.609 93.6875C250.578 94.0312 251.414 94.5859 252.117 95.3516C252.82 96.1172 253.367 97.1328 253.758 98.3984C254.148 99.6484 254.344 101.195 254.344 103.039V119H246.422V103.039C246.422 101.992 246.297 101.203 246.047 100.672C245.812 100.125 245.469 99.7578 245.016 99.5703C244.562 99.3672 244.023 99.2656 243.398 99.2656C242.648 99.2656 242 99.4219 241.453 99.7344C240.906 100.047 240.445 100.484 240.07 101.047C239.711 101.594 239.445 102.242 239.273 102.992C239.102 103.742 239.016 104.562 239.016 105.453ZM271.148 119.469C269.086 119.469 267.242 119.148 265.617 118.508C263.992 117.852 262.617 116.953 261.492 115.812C260.383 114.672 259.531 113.359 258.938 111.875C258.359 110.391 258.07 108.82 258.07 107.164V106.273C258.07 104.414 258.328 102.695 258.844 101.117C259.359 99.5234 260.125 98.1328 261.141 96.9453C262.156 95.7578 263.43 94.8359 264.961 94.1797C266.492 93.5078 268.273 93.1719 270.305 93.1719C272.102 93.1719 273.711 93.4609 275.133 94.0391C276.555 94.6172 277.758 95.4453 278.742 96.5234C279.742 97.6016 280.5 98.9062 281.016 100.438C281.547 101.969 281.812 103.688 281.812 105.594V108.805H261.094V103.859H274.102V103.25C274.117 102.406 273.969 101.688 273.656 101.094C273.359 100.5 272.922 100.047 272.344 99.7344C271.766 99.4219 271.062 99.2656 270.234 99.2656C269.375 99.2656 268.664 99.4531 268.102 99.8281C267.555 100.203 267.125 100.719 266.812 101.375C266.516 102.016 266.305 102.758 266.18 103.602C266.055 104.445 265.992 105.336 265.992 106.273V107.164C265.992 108.102 266.117 108.953 266.367 109.719C266.633 110.484 267.008 111.141 267.492 111.688C267.992 112.219 268.586 112.633 269.273 112.93C269.977 113.227 270.773 113.375 271.664 113.375C272.742 113.375 273.805 113.172 274.852 112.766C275.898 112.359 276.797 111.688 277.547 110.75L281.133 115.016C280.617 115.75 279.883 116.461 278.93 117.148C277.992 117.836 276.867 118.398 275.555 118.836C274.242 119.258 272.773 119.469 271.148 119.469ZM292.781 99.0547V119H284.883V93.6406H292.289L292.781 99.0547ZM291.844 105.453L289.992 105.5C289.992 103.562 290.227 101.836 290.695 100.32C291.164 98.7891 291.828 97.4922 292.688 96.4297C293.547 95.3672 294.57 94.5625 295.758 94.0156C296.961 93.4531 298.297 93.1719 299.766 93.1719C300.938 93.1719 302.008 93.3438 302.977 93.6875C303.961 94.0312 304.805 94.5859 305.508 95.3516C306.227 96.1172 306.773 97.1328 307.148 98.3984C307.539 99.6484 307.734 101.195 307.734 103.039V119H299.789V103.016C299.789 102 299.648 101.227 299.367 100.695C299.086 100.148 298.68 99.7734 298.148 99.5703C297.617 99.3672 296.969 99.2656 296.203 99.2656C295.391 99.2656 294.703 99.4219 294.141 99.7344C293.578 100.047 293.125 100.484 292.781 101.047C292.453 101.594 292.211 102.242 292.055 102.992C291.914 103.742 291.844 104.562 291.844 105.453ZM325.477 93.6406V99.125H310.195V93.6406H325.477ZM313.406 87.3359H321.305V110.727C321.305 111.398 321.383 111.922 321.539 112.297C321.695 112.656 321.961 112.914 322.336 113.07C322.727 113.211 323.242 113.281 323.883 113.281C324.336 113.281 324.711 113.273 325.008 113.258C325.305 113.227 325.586 113.188 325.852 113.141V118.789C325.18 119.008 324.477 119.172 323.742 119.281C323.008 119.406 322.227 119.469 321.398 119.469C319.711 119.469 318.266 119.203 317.062 118.672C315.875 118.141 314.969 117.305 314.344 116.164C313.719 115.023 313.406 113.539 313.406 111.711V87.3359ZM341.789 112.625V102.172C341.789 101.453 341.688 100.836 341.484 100.32C341.281 99.8047 340.961 99.4062 340.523 99.125C340.086 98.8281 339.5 98.6797 338.766 98.6797C338.172 98.6797 337.664 98.7812 337.242 98.9844C336.82 99.1875 336.5 99.4922 336.281 99.8984C336.062 100.305 335.953 100.82 335.953 101.445H328.055C328.055 100.273 328.312 99.1875 328.828 98.1875C329.359 97.1719 330.109 96.2891 331.078 95.5391C332.062 94.7891 333.234 94.2109 334.594 93.8047C335.969 93.3828 337.5 93.1719 339.188 93.1719C341.203 93.1719 343 93.5078 344.578 94.1797C346.172 94.8516 347.43 95.8594 348.352 97.2031C349.273 98.5312 349.734 100.203 349.734 102.219V112.602C349.734 114.258 349.828 115.516 350.016 116.375C350.203 117.219 350.469 117.961 350.812 118.602V119H342.891C342.516 118.219 342.234 117.266 342.047 116.141C341.875 115 341.789 113.828 341.789 112.625ZM342.75 103.508L342.797 107.727H339.305C338.57 107.727 337.945 107.828 337.43 108.031C336.93 108.234 336.523 108.516 336.211 108.875C335.914 109.219 335.695 109.609 335.555 110.047C335.43 110.484 335.367 110.945 335.367 111.43C335.367 111.898 335.477 112.32 335.695 112.695C335.93 113.055 336.242 113.336 336.633 113.539C337.023 113.742 337.461 113.844 337.945 113.844C338.82 113.844 339.562 113.68 340.172 113.352C340.797 113.008 341.273 112.594 341.602 112.109C341.93 111.625 342.094 111.172 342.094 110.75L343.828 113.984C343.516 114.609 343.156 115.242 342.75 115.883C342.359 116.523 341.867 117.117 341.273 117.664C340.695 118.195 339.984 118.633 339.141 118.977C338.297 119.305 337.273 119.469 336.07 119.469C334.508 119.469 333.07 119.148 331.758 118.508C330.461 117.867 329.422 116.977 328.641 115.836C327.859 114.68 327.469 113.352 327.469 111.852C327.469 110.539 327.703 109.367 328.172 108.336C328.656 107.305 329.383 106.43 330.352 105.711C331.32 104.992 332.555 104.445 334.055 104.07C335.555 103.695 337.32 103.508 339.352 103.508H342.75ZM367.477 93.6406V99.125H352.195V93.6406H367.477ZM355.406 87.3359H363.305V110.727C363.305 111.398 363.383 111.922 363.539 112.297C363.695 112.656 363.961 112.914 364.336 113.07C364.727 113.211 365.242 113.281 365.883 113.281C366.336 113.281 366.711 113.273 367.008 113.258C367.305 113.227 367.586 113.188 367.852 113.141V118.789C367.18 119.008 366.477 119.172 365.742 119.281C365.008 119.406 364.227 119.469 363.398 119.469C361.711 119.469 360.266 119.203 359.062 118.672C357.875 118.141 356.969 117.305 356.344 116.164C355.719 115.023 355.406 113.539 355.406 111.711V87.3359ZM378.961 93.6406V119H371.039V93.6406H378.961ZM370.57 87.1016C370.57 85.9766 370.977 85.0547 371.789 84.3359C372.602 83.6172 373.656 83.2578 374.953 83.2578C376.25 83.2578 377.305 83.6172 378.117 84.3359C378.93 85.0547 379.336 85.9766 379.336 87.1016C379.336 88.2266 378.93 89.1484 378.117 89.8672C377.305 90.5859 376.25 90.9453 374.953 90.9453C373.656 90.9453 372.602 90.5859 371.789 89.8672C370.977 89.1484 370.57 88.2266 370.57 87.1016ZM382.852 106.578V106.086C382.852 104.227 383.117 102.516 383.648 100.953C384.18 99.375 384.961 98.0078 385.992 96.8516C387.023 95.6953 388.297 94.7969 389.812 94.1562C391.328 93.5 393.078 93.1719 395.062 93.1719C397.062 93.1719 398.82 93.5 400.336 94.1562C401.867 94.7969 403.148 95.6953 404.18 96.8516C405.211 98.0078 405.992 99.375 406.523 100.953C407.055 102.516 407.32 104.227 407.32 106.086V106.578C407.32 108.422 407.055 110.133 406.523 111.711C405.992 113.273 405.211 114.641 404.18 115.812C403.148 116.969 401.875 117.867 400.359 118.508C398.844 119.148 397.094 119.469 395.109 119.469C393.125 119.469 391.367 119.148 389.836 118.508C388.305 117.867 387.023 116.969 385.992 115.812C384.961 114.641 384.18 113.273 383.648 111.711C383.117 110.133 382.852 108.422 382.852 106.578ZM390.75 106.086V106.578C390.75 107.531 390.82 108.422 390.961 109.25C391.102 110.078 391.336 110.805 391.664 111.43C391.992 112.039 392.438 112.516 393 112.859C393.562 113.203 394.266 113.375 395.109 113.375C395.938 113.375 396.625 113.203 397.172 112.859C397.734 112.516 398.18 112.039 398.508 111.43C398.836 110.805 399.07 110.078 399.211 109.25C399.352 108.422 399.422 107.531 399.422 106.578V106.086C399.422 105.164 399.352 104.297 399.211 103.484C399.07 102.656 398.836 101.93 398.508 101.305C398.18 100.664 397.734 100.164 397.172 99.8047C396.609 99.4453 395.906 99.2656 395.062 99.2656C394.234 99.2656 393.539 99.4453 392.977 99.8047C392.43 100.164 391.992 100.664 391.664 101.305C391.336 101.93 391.102 102.656 390.961 103.484C390.82 104.297 390.75 105.164 390.75 106.086ZM418.594 99.0547V119H410.695V93.6406H418.102L418.594 99.0547ZM417.656 105.453L415.805 105.5C415.805 103.562 416.039 101.836 416.508 100.32C416.977 98.7891 417.641 97.4922 418.5 96.4297C419.359 95.3672 420.383 94.5625 421.57 94.0156C422.773 93.4531 424.109 93.1719 425.578 93.1719C426.75 93.1719 427.82 93.3438 428.789 93.6875C429.773 94.0312 430.617 94.5859 431.32 95.3516C432.039 96.1172 432.586 97.1328 432.961 98.3984C433.352 99.6484 433.547 101.195 433.547 103.039V119H425.602V103.016C425.602 102 425.461 101.227 425.18 100.695C424.898 100.148 424.492 99.7734 423.961 99.5703C423.43 99.3672 422.781 99.2656 422.016 99.2656C421.203 99.2656 420.516 99.4219 419.953 99.7344C419.391 100.047 418.938 100.484 418.594 101.047C418.266 101.594 418.023 102.242 417.867 102.992C417.727 103.742 417.656 104.562 417.656 105.453Z" fill="black"/>
<path d="M1134 0H1348C1356.28 0 1363 6.71573 1363 15V148C1363 156.284 1356.28 163 1348 163H1134V0Z" fill="#F25B5F"/>
<path d="M1281 46.5H1216L1213.5 49V114L1216 116.5H1281L1283.5 114V49L1281 46.5ZM1278.5 111.5H1233.5V101.5H1245C1246.5 104.5 1250 106.5 1253.5 106.5C1259 106.5 1263.5 102 1263.5 96.5C1263.5 91 1259 86.5 1253.5 86.5C1248 86.5 1243.5 91 1243.5 96.5H1228.5V111.5H1218.5V51.5H1228.5V63C1225.5 64.5 1223.5 68 1223.5 71.5C1223.5 77 1228 81.5 1233.5 81.5C1239 81.5 1243.5 77 1243.5 71.5H1253.5C1253.5 77 1258 81.5 1263.5 81.5C1269 81.5 1273.5 77 1273.5 71.5C1273.5 66 1269 61.5 1263.5 61.5C1260 61.5 1256.5 63.5 1255 66.5H1242C1240.5 63.5 1237 61.5 1233.5 61.5V51.5H1278.5V111.5ZM1248.5 96.5C1248.5 93.5 1250.5 91.5 1253.5 91.5C1256.5 91.5 1258.5 93.5 1258.5 96.5C1258.5 99.5 1256.5 101.5 1253.5 101.5C1250.5 101.5 1248.5 99.5 1248.5 96.5ZM1233.5 66.5C1236.5 66.5 1238.5 68.5 1238.5 71.5C1238.5 74.5 1236.5 76.5 1233.5 76.5C1230.5 76.5 1228.5 74.5 1228.5 71.5C1228.5 68.5 1230.5 66.5 1233.5 66.5ZM1263.5 66.5C1266.5 66.5 1268.5 68.5 1268.5 71.5C1268.5 74.5 1266.5 76.5 1263.5 76.5C1260.5 76.5 1258.5 74.5 1258.5 71.5C1258.5 68.5 1260.5 66.5 1263.5 66.5Z" fill="white"/>
</svg>
