<svg width="1363" height="163" viewBox="0 0 1363 163" fill="none" xmlns="http://www.w3.org/2000/svg">
<path d="M0 15C0 6.71573 6.71573 0 15 0H37V163H15C6.71573 163 0 156.284 0 148V15Z" fill="#F25B5F"/>
<rect width="1097" height="163" transform="translate(37)" fill="#F0F0F0"/>
<path d="M101.906 53.9219L94.3945 51.2383V48.0859L104.602 52.375V54.6367L101.906 53.9219ZM94.3945 56.1719L101.918 53.4297L104.602 52.7852V55.0352L94.3945 59.3242V56.1719ZM119.836 46.8555L115.195 61H111.457L117.797 43.9375H120.176L119.836 46.8555ZM123.691 61L119.039 46.8555L118.664 43.9375H121.066L127.441 61H123.691ZM123.48 54.6484V57.4023H114.469V54.6484H123.48ZM132.375 48.3203V61H128.988V48.3203H132.375ZM128.777 45.0156C128.777 44.5234 128.949 44.1172 129.293 43.7969C129.637 43.4766 130.098 43.3164 130.676 43.3164C131.246 43.3164 131.703 43.4766 132.047 43.7969C132.398 44.1172 132.574 44.5234 132.574 45.0156C132.574 45.5078 132.398 45.9141 132.047 46.2344C131.703 46.5547 131.246 46.7148 130.676 46.7148C130.098 46.7148 129.637 46.5547 129.293 46.2344C128.949 45.9141 128.777 45.5078 128.777 45.0156ZM138.539 51.0859V61H135.164V48.3203H138.34L138.539 51.0859ZM142.359 48.2383L142.301 51.3672C142.137 51.3438 141.938 51.3242 141.703 51.3086C141.477 51.2852 141.27 51.2734 141.082 51.2734C140.605 51.2734 140.191 51.3359 139.84 51.4609C139.496 51.5781 139.207 51.7539 138.973 51.9883C138.746 52.2227 138.574 52.5078 138.457 52.8438C138.348 53.1797 138.285 53.5625 138.27 53.9922L137.59 53.7812C137.59 52.9609 137.672 52.207 137.836 51.5195C138 50.8242 138.238 50.2188 138.551 49.7031C138.871 49.1875 139.262 48.7891 139.723 48.5078C140.184 48.2266 140.711 48.0859 141.305 48.0859C141.492 48.0859 141.684 48.1016 141.879 48.1328C142.074 48.1562 142.234 48.1914 142.359 48.2383ZM143.953 43H147.328V58.0938L146.988 61H143.953V43ZM155.355 54.5312V54.7773C155.355 55.7227 155.254 56.5898 155.051 57.3789C154.855 58.168 154.551 58.8516 154.137 59.4297C153.723 60 153.207 60.4453 152.59 60.7656C151.98 61.0781 151.262 61.2344 150.434 61.2344C149.66 61.2344 148.988 61.0781 148.418 60.7656C147.855 60.4531 147.383 60.0117 147 59.4414C146.617 58.8711 146.309 58.2031 146.074 57.4375C145.84 56.6719 145.664 55.8359 145.547 54.9297V54.3906C145.664 53.4844 145.84 52.6484 146.074 51.8828C146.309 51.1172 146.617 50.4492 147 49.8789C147.383 49.3086 147.855 48.8672 148.418 48.5547C148.98 48.2422 149.645 48.0859 150.41 48.0859C151.246 48.0859 151.973 48.2461 152.59 48.5664C153.215 48.8789 153.73 49.3242 154.137 49.9023C154.551 50.4727 154.855 51.1523 155.051 51.9414C155.254 52.7227 155.355 53.5859 155.355 54.5312ZM151.98 54.7773V54.5312C151.98 54.0156 151.941 53.5312 151.863 53.0781C151.793 52.6172 151.668 52.2148 151.488 51.8711C151.309 51.5195 151.062 51.2422 150.75 51.0391C150.445 50.8359 150.051 50.7344 149.566 50.7344C149.105 50.7344 148.715 50.8125 148.395 50.9688C148.074 51.125 147.809 51.3438 147.598 51.625C147.395 51.9062 147.242 52.2422 147.141 52.6328C147.039 53.0156 146.977 53.4375 146.953 53.8984V55.4336C146.977 56.0508 147.078 56.5977 147.258 57.0742C147.445 57.543 147.727 57.9141 148.102 58.1875C148.484 58.4531 148.98 58.5859 149.59 58.5859C150.066 58.5859 150.461 58.4922 150.773 58.3047C151.086 58.1172 151.328 57.8516 151.5 57.5078C151.68 57.1641 151.805 56.7617 151.875 56.3008C151.945 55.832 151.98 55.3242 151.98 54.7773ZM160.758 51.0273V61H157.383V48.3203H160.547L160.758 51.0273ZM160.266 54.2148H159.352C159.352 53.2773 159.473 52.4336 159.715 51.6836C159.957 50.9258 160.297 50.2812 160.734 49.75C161.172 49.2109 161.691 48.8008 162.293 48.5195C162.902 48.2305 163.582 48.0859 164.332 48.0859C164.926 48.0859 165.469 48.1719 165.961 48.3438C166.453 48.5156 166.875 48.7891 167.227 49.1641C167.586 49.5391 167.859 50.0352 168.047 50.6523C168.242 51.2695 168.34 52.0234 168.34 52.9141V61H164.941V52.9023C164.941 52.3398 164.863 51.9023 164.707 51.5898C164.551 51.2773 164.32 51.0586 164.016 50.9336C163.719 50.8008 163.352 50.7344 162.914 50.7344C162.461 50.7344 162.066 50.8242 161.73 51.0039C161.402 51.1836 161.129 51.4336 160.91 51.7539C160.699 52.0664 160.539 52.4336 160.43 52.8555C160.32 53.2773 160.266 53.7305 160.266 54.2148ZM170.906 43H174.281V58.0938L173.941 61H170.906V43ZM182.309 54.5312V54.7773C182.309 55.7227 182.207 56.5898 182.004 57.3789C181.809 58.168 181.504 58.8516 181.09 59.4297C180.676 60 180.16 60.4453 179.543 60.7656C178.934 61.0781 178.215 61.2344 177.387 61.2344C176.613 61.2344 175.941 61.0781 175.371 60.7656C174.809 60.4531 174.336 60.0117 173.953 59.4414C173.57 58.8711 173.262 58.2031 173.027 57.4375C172.793 56.6719 172.617 55.8359 172.5 54.9297V54.3906C172.617 53.4844 172.793 52.6484 173.027 51.8828C173.262 51.1172 173.57 50.4492 173.953 49.8789C174.336 49.3086 174.809 48.8672 175.371 48.5547C175.934 48.2422 176.598 48.0859 177.363 48.0859C178.199 48.0859 178.926 48.2461 179.543 48.5664C180.168 48.8789 180.684 49.3242 181.09 49.9023C181.504 50.4727 181.809 51.1523 182.004 51.9414C182.207 52.7227 182.309 53.5859 182.309 54.5312ZM178.934 54.7773V54.5312C178.934 54.0156 178.895 53.5312 178.816 53.0781C178.746 52.6172 178.621 52.2148 178.441 51.8711C178.262 51.5195 178.016 51.2422 177.703 51.0391C177.398 50.8359 177.004 50.7344 176.52 50.7344C176.059 50.7344 175.668 50.8125 175.348 50.9688C175.027 51.125 174.762 51.3438 174.551 51.625C174.348 51.9062 174.195 52.2422 174.094 52.6328C173.992 53.0156 173.93 53.4375 173.906 53.8984V55.4336C173.93 56.0508 174.031 56.5977 174.211 57.0742C174.398 57.543 174.68 57.9141 175.055 58.1875C175.438 58.4531 175.934 58.5859 176.543 58.5859C177.02 58.5859 177.414 58.4922 177.727 58.3047C178.039 58.1172 178.281 57.8516 178.453 57.5078C178.633 57.1641 178.758 56.7617 178.828 56.3008C178.898 55.832 178.934 55.3242 178.934 54.7773ZM197.531 46.8555L192.891 61H189.152L195.492 43.9375H197.871L197.531 46.8555ZM201.387 61L196.734 46.8555L196.359 43.9375H198.762L205.137 61H201.387ZM201.176 54.6484V57.4023H192.164V54.6484H201.176ZM209.438 51.0273V61H206.062V48.3203H209.227L209.438 51.0273ZM208.945 54.2148H208.031C208.031 53.2773 208.152 52.4336 208.395 51.6836C208.637 50.9258 208.977 50.2812 209.414 49.75C209.852 49.2109 210.371 48.8008 210.973 48.5195C211.582 48.2305 212.262 48.0859 213.012 48.0859C213.605 48.0859 214.148 48.1719 214.641 48.3438C215.133 48.5156 215.555 48.7891 215.906 49.1641C216.266 49.5391 216.539 50.0352 216.727 50.6523C216.922 51.2695 217.02 52.0234 217.02 52.9141V61H213.621V52.9023C213.621 52.3398 213.543 51.9023 213.387 51.5898C213.23 51.2773 213 51.0586 212.695 50.9336C212.398 50.8008 212.031 50.7344 211.594 50.7344C211.141 50.7344 210.746 50.8242 210.41 51.0039C210.082 51.1836 209.809 51.4336 209.59 51.7539C209.379 52.0664 209.219 52.4336 209.109 52.8555C209 53.2773 208.945 53.7305 208.945 54.2148ZM226.43 58.1406V52.4922C226.43 52.0859 226.363 51.7383 226.23 51.4492C226.098 51.1523 225.891 50.9219 225.609 50.7578C225.336 50.5938 224.98 50.5117 224.543 50.5117C224.168 50.5117 223.844 50.5781 223.57 50.7109C223.297 50.8359 223.086 51.0195 222.938 51.2617C222.789 51.4961 222.715 51.7734 222.715 52.0938H219.34C219.34 51.5547 219.465 51.043 219.715 50.5586C219.965 50.0742 220.328 49.6484 220.805 49.2812C221.281 48.9062 221.848 48.6133 222.504 48.4023C223.168 48.1914 223.91 48.0859 224.73 48.0859C225.715 48.0859 226.59 48.25 227.355 48.5781C228.121 48.9062 228.723 49.3984 229.16 50.0547C229.605 50.7109 229.828 51.5312 229.828 52.5156V57.9414C229.828 58.6367 229.871 59.207 229.957 59.6523C230.043 60.0898 230.168 60.4727 230.332 60.8008V61H226.922C226.758 60.6562 226.633 60.2266 226.547 59.7109C226.469 59.1875 226.43 58.6641 226.43 58.1406ZM226.875 53.2773L226.898 55.1875H225.012C224.566 55.1875 224.18 55.2383 223.852 55.3398C223.523 55.4414 223.254 55.5859 223.043 55.7734C222.832 55.9531 222.676 56.1641 222.574 56.4062C222.48 56.6484 222.434 56.9141 222.434 57.2031C222.434 57.4922 222.5 57.7539 222.633 57.9883C222.766 58.2148 222.957 58.3945 223.207 58.5273C223.457 58.6523 223.75 58.7148 224.086 58.7148C224.594 58.7148 225.035 58.6133 225.41 58.4102C225.785 58.207 226.074 57.957 226.277 57.6602C226.488 57.3633 226.598 57.082 226.605 56.8164L227.496 58.2461C227.371 58.5664 227.199 58.8984 226.98 59.2422C226.77 59.5859 226.5 59.9102 226.172 60.2148C225.844 60.5117 225.449 60.7578 224.988 60.9531C224.527 61.1406 223.98 61.2344 223.348 61.2344C222.543 61.2344 221.812 61.0742 221.156 60.7539C220.508 60.4258 219.992 59.9766 219.609 59.4062C219.234 58.8281 219.047 58.1719 219.047 57.4375C219.047 56.7734 219.172 56.1836 219.422 55.668C219.672 55.1523 220.039 54.7188 220.523 54.3672C221.016 54.0078 221.629 53.7383 222.363 53.5586C223.098 53.3711 223.949 53.2773 224.918 53.2773H226.875ZM235.992 43V61H232.605V43H235.992ZM242.543 59.5703L245.906 48.3203H249.527L244.43 62.9102C244.32 63.2305 244.172 63.5742 243.984 63.9414C243.805 64.3086 243.559 64.6562 243.246 64.9844C242.941 65.3203 242.555 65.5938 242.086 65.8047C241.625 66.0156 241.059 66.1211 240.387 66.1211C240.066 66.1211 239.805 66.1016 239.602 66.0625C239.398 66.0234 239.156 65.9688 238.875 65.8984V63.4258C238.961 63.4258 239.051 63.4258 239.145 63.4258C239.238 63.4336 239.328 63.4375 239.414 63.4375C239.859 63.4375 240.223 63.3867 240.504 63.2852C240.785 63.1836 241.012 63.0273 241.184 62.8164C241.355 62.6133 241.492 62.3477 241.594 62.0195L242.543 59.5703ZM241.137 48.3203L243.891 57.5078L244.371 61.082L242.074 61.3281L237.516 48.3203H241.137ZM257.73 57.4961C257.73 57.2539 257.66 57.0352 257.52 56.8398C257.379 56.6445 257.117 56.4648 256.734 56.3008C256.359 56.1289 255.816 55.9727 255.105 55.832C254.465 55.6914 253.867 55.5156 253.312 55.3047C252.766 55.0859 252.289 54.8242 251.883 54.5195C251.484 54.2148 251.172 53.8555 250.945 53.4414C250.719 53.0195 250.605 52.5391 250.605 52C250.605 51.4688 250.719 50.9688 250.945 50.5C251.18 50.0312 251.512 49.6172 251.941 49.2578C252.379 48.8906 252.91 48.6055 253.535 48.4023C254.168 48.1914 254.879 48.0859 255.668 48.0859C256.77 48.0859 257.715 48.2617 258.504 48.6133C259.301 48.9648 259.91 49.4492 260.332 50.0664C260.762 50.6758 260.977 51.3711 260.977 52.1523H257.602C257.602 51.8242 257.531 51.5312 257.391 51.2734C257.258 51.0078 257.047 50.8008 256.758 50.6523C256.477 50.4961 256.109 50.418 255.656 50.418C255.281 50.418 254.957 50.4844 254.684 50.6172C254.41 50.7422 254.199 50.9141 254.051 51.1328C253.91 51.3438 253.84 51.5781 253.84 51.8359C253.84 52.0312 253.879 52.207 253.957 52.3633C254.043 52.5117 254.18 52.6484 254.367 52.7734C254.555 52.8984 254.797 53.0156 255.094 53.125C255.398 53.2266 255.773 53.3203 256.219 53.4062C257.133 53.5938 257.949 53.8398 258.668 54.1445C259.387 54.4414 259.957 54.8477 260.379 55.3633C260.801 55.8711 261.012 56.5391 261.012 57.3672C261.012 57.9297 260.887 58.4453 260.637 58.9141C260.387 59.3828 260.027 59.793 259.559 60.1445C259.09 60.4883 258.527 60.7578 257.871 60.9531C257.223 61.1406 256.492 61.2344 255.68 61.2344C254.5 61.2344 253.5 61.0234 252.68 60.6016C251.867 60.1797 251.25 59.6445 250.828 58.9961C250.414 58.3398 250.207 57.668 250.207 56.9805H253.406C253.422 57.4414 253.539 57.8125 253.758 58.0938C253.984 58.375 254.27 58.5781 254.613 58.7031C254.965 58.8281 255.344 58.8906 255.75 58.8906C256.188 58.8906 256.551 58.832 256.84 58.7148C257.129 58.5898 257.348 58.4258 257.496 58.2227C257.652 58.0117 257.73 57.7695 257.73 57.4961ZM266.766 48.3203V61H263.379V48.3203H266.766ZM263.168 45.0156C263.168 44.5234 263.34 44.1172 263.684 43.7969C264.027 43.4766 264.488 43.3164 265.066 43.3164C265.637 43.3164 266.094 43.4766 266.438 43.7969C266.789 44.1172 266.965 44.5234 266.965 45.0156C266.965 45.5078 266.789 45.9141 266.438 46.2344C266.094 46.5547 265.637 46.7148 265.066 46.7148C264.488 46.7148 264.027 46.5547 263.684 46.2344C263.34 45.9141 263.168 45.5078 263.168 45.0156ZM276.41 57.4961C276.41 57.2539 276.34 57.0352 276.199 56.8398C276.059 56.6445 275.797 56.4648 275.414 56.3008C275.039 56.1289 274.496 55.9727 273.785 55.832C273.145 55.6914 272.547 55.5156 271.992 55.3047C271.445 55.0859 270.969 54.8242 270.562 54.5195C270.164 54.2148 269.852 53.8555 269.625 53.4414C269.398 53.0195 269.285 52.5391 269.285 52C269.285 51.4688 269.398 50.9688 269.625 50.5C269.859 50.0312 270.191 49.6172 270.621 49.2578C271.059 48.8906 271.59 48.6055 272.215 48.4023C272.848 48.1914 273.559 48.0859 274.348 48.0859C275.449 48.0859 276.395 48.2617 277.184 48.6133C277.98 48.9648 278.59 49.4492 279.012 50.0664C279.441 50.6758 279.656 51.3711 279.656 52.1523H276.281C276.281 51.8242 276.211 51.5312 276.07 51.2734C275.938 51.0078 275.727 50.8008 275.438 50.6523C275.156 50.4961 274.789 50.418 274.336 50.418C273.961 50.418 273.637 50.4844 273.363 50.6172C273.09 50.7422 272.879 50.9141 272.73 51.1328C272.59 51.3438 272.52 51.5781 272.52 51.8359C272.52 52.0312 272.559 52.207 272.637 52.3633C272.723 52.5117 272.859 52.6484 273.047 52.7734C273.234 52.8984 273.477 53.0156 273.773 53.125C274.078 53.2266 274.453 53.3203 274.898 53.4062C275.812 53.5938 276.629 53.8398 277.348 54.1445C278.066 54.4414 278.637 54.8477 279.059 55.3633C279.48 55.8711 279.691 56.5391 279.691 57.3672C279.691 57.9297 279.566 58.4453 279.316 58.9141C279.066 59.3828 278.707 59.793 278.238 60.1445C277.77 60.4883 277.207 60.7578 276.551 60.9531C275.902 61.1406 275.172 61.2344 274.359 61.2344C273.18 61.2344 272.18 61.0234 271.359 60.6016C270.547 60.1797 269.93 59.6445 269.508 58.9961C269.094 58.3398 268.887 57.668 268.887 56.9805H272.086C272.102 57.4414 272.219 57.8125 272.438 58.0938C272.664 58.375 272.949 58.5781 273.293 58.7031C273.645 58.8281 274.023 58.8906 274.43 58.8906C274.867 58.8906 275.23 58.832 275.52 58.7148C275.809 58.5898 276.027 58.4258 276.176 58.2227C276.332 58.0117 276.41 57.7695 276.41 57.4961Z" fill="#888888"/>
<path d="M109.219 107.422H100.734V101.07H109.219C110.375 101.07 111.312 100.875 112.031 100.484C112.75 100.094 113.273 99.5547 113.602 98.8672C113.945 98.1641 114.117 97.375 114.117 96.5C114.117 95.5625 113.945 94.6953 113.602 93.8984C113.273 93.1016 112.75 92.4609 112.031 91.9766C111.312 91.4766 110.375 91.2266 109.219 91.2266H103.828V119H95.6016V84.875H109.219C111.953 84.875 114.305 85.375 116.273 86.375C118.258 87.375 119.781 88.75 120.844 90.5C121.906 92.2344 122.438 94.2188 122.438 96.4531C122.438 98.6562 121.906 100.578 120.844 102.219C119.781 103.859 118.258 105.141 116.273 106.062C114.305 106.969 111.953 107.422 109.219 107.422ZM134.461 99.9219V119H126.562V93.6406H133.945L134.461 99.9219ZM141.961 93.4531L141.82 100.789C141.508 100.758 141.086 100.719 140.555 100.672C140.023 100.625 139.578 100.602 139.219 100.602C138.297 100.602 137.5 100.711 136.828 100.93C136.172 101.133 135.625 101.445 135.188 101.867C134.766 102.273 134.453 102.789 134.25 103.414C134.062 104.039 133.977 104.766 133.992 105.594L132.562 104.656C132.562 102.953 132.727 101.406 133.055 100.016C133.398 98.6094 133.883 97.3984 134.508 96.3828C135.133 95.3516 135.891 94.5625 136.781 94.0156C137.672 93.4531 138.672 93.1719 139.781 93.1719C140.172 93.1719 140.555 93.1953 140.93 93.2422C141.32 93.2891 141.664 93.3594 141.961 93.4531ZM142.852 106.578V106.086C142.852 104.227 143.117 102.516 143.648 100.953C144.18 99.375 144.961 98.0078 145.992 96.8516C147.023 95.6953 148.297 94.7969 149.812 94.1562C151.328 93.5 153.078 93.1719 155.062 93.1719C157.062 93.1719 158.82 93.5 160.336 94.1562C161.867 94.7969 163.148 95.6953 164.18 96.8516C165.211 98.0078 165.992 99.375 166.523 100.953C167.055 102.516 167.32 104.227 167.32 106.086V106.578C167.32 108.422 167.055 110.133 166.523 111.711C165.992 113.273 165.211 114.641 164.18 115.812C163.148 116.969 161.875 117.867 160.359 118.508C158.844 119.148 157.094 119.469 155.109 119.469C153.125 119.469 151.367 119.148 149.836 118.508C148.305 117.867 147.023 116.969 145.992 115.812C144.961 114.641 144.18 113.273 143.648 111.711C143.117 110.133 142.852 108.422 142.852 106.578ZM150.75 106.086V106.578C150.75 107.531 150.82 108.422 150.961 109.25C151.102 110.078 151.336 110.805 151.664 111.43C151.992 112.039 152.438 112.516 153 112.859C153.562 113.203 154.266 113.375 155.109 113.375C155.938 113.375 156.625 113.203 157.172 112.859C157.734 112.516 158.18 112.039 158.508 111.43C158.836 110.805 159.07 110.078 159.211 109.25C159.352 108.422 159.422 107.531 159.422 106.578V106.086C159.422 105.164 159.352 104.297 159.211 103.484C159.07 102.656 158.836 101.93 158.508 101.305C158.18 100.664 157.734 100.164 157.172 99.8047C156.609 99.4453 155.906 99.2656 155.062 99.2656C154.234 99.2656 153.539 99.4453 152.977 99.8047C152.43 100.164 151.992 100.664 151.664 101.305C151.336 101.93 151.102 102.656 150.961 103.484C150.82 104.297 150.75 105.164 150.75 106.086ZM171.422 93.6406H179.344V119.82C179.344 121.852 178.953 123.562 178.172 124.953C177.391 126.359 176.273 127.422 174.82 128.141C173.367 128.875 171.633 129.242 169.617 129.242C168.945 129.242 168.328 129.211 167.766 129.148C167.188 129.102 166.555 129 165.867 128.844V122.867C166.273 122.93 166.648 122.977 166.992 123.008C167.336 123.055 167.711 123.078 168.117 123.078C168.836 123.078 169.438 122.961 169.922 122.727C170.406 122.492 170.773 122.133 171.023 121.648C171.289 121.164 171.422 120.555 171.422 119.82V93.6406ZM170.836 87.1016C170.836 85.9766 171.242 85.0547 172.055 84.3359C172.867 83.6172 173.922 83.2578 175.219 83.2578C176.516 83.2578 177.57 83.6172 178.383 84.3359C179.195 85.0547 179.602 85.9766 179.602 87.1016C179.602 88.2266 179.195 89.1484 178.383 89.8672C177.57 90.5859 176.516 90.9453 175.219 90.9453C173.922 90.9453 172.867 90.5859 172.055 89.8672C171.242 89.1484 170.836 88.2266 170.836 87.1016ZM196.102 119.469C194.039 119.469 192.195 119.148 190.57 118.508C188.945 117.852 187.57 116.953 186.445 115.812C185.336 114.672 184.484 113.359 183.891 111.875C183.312 110.391 183.023 108.82 183.023 107.164V106.273C183.023 104.414 183.281 102.695 183.797 101.117C184.312 99.5234 185.078 98.1328 186.094 96.9453C187.109 95.7578 188.383 94.8359 189.914 94.1797C191.445 93.5078 193.227 93.1719 195.258 93.1719C197.055 93.1719 198.664 93.4609 200.086 94.0391C201.508 94.6172 202.711 95.4453 203.695 96.5234C204.695 97.6016 205.453 98.9062 205.969 100.438C206.5 101.969 206.766 103.688 206.766 105.594V108.805H186.047V103.859H199.055V103.25C199.07 102.406 198.922 101.688 198.609 101.094C198.312 100.5 197.875 100.047 197.297 99.7344C196.719 99.4219 196.016 99.2656 195.188 99.2656C194.328 99.2656 193.617 99.4531 193.055 99.8281C192.508 100.203 192.078 100.719 191.766 101.375C191.469 102.016 191.258 102.758 191.133 103.602C191.008 104.445 190.945 105.336 190.945 106.273V107.164C190.945 108.102 191.07 108.953 191.32 109.719C191.586 110.484 191.961 111.141 192.445 111.688C192.945 112.219 193.539 112.633 194.227 112.93C194.93 113.227 195.727 113.375 196.617 113.375C197.695 113.375 198.758 113.172 199.805 112.766C200.852 112.359 201.75 111.688 202.5 110.75L206.086 115.016C205.57 115.75 204.836 116.461 203.883 117.148C202.945 117.836 201.82 118.398 200.508 118.836C199.195 119.258 197.727 119.469 196.102 119.469ZM220.688 113.375C221.422 113.375 222.047 113.242 222.562 112.977C223.094 112.695 223.492 112.305 223.758 111.805C224.039 111.289 224.172 110.672 224.156 109.953H231.586C231.602 111.859 231.133 113.531 230.18 114.969C229.242 116.391 227.961 117.5 226.336 118.297C224.727 119.078 222.906 119.469 220.875 119.469C218.891 119.469 217.156 119.148 215.672 118.508C214.188 117.852 212.945 116.945 211.945 115.789C210.961 114.617 210.219 113.25 209.719 111.688C209.234 110.125 208.992 108.43 208.992 106.602V106.062C208.992 104.234 209.234 102.539 209.719 100.977C210.219 99.3984 210.961 98.0312 211.945 96.875C212.945 95.7031 214.18 94.7969 215.648 94.1562C217.133 93.5 218.859 93.1719 220.828 93.1719C222.938 93.1719 224.797 93.5703 226.406 94.3672C228.031 95.1641 229.305 96.3203 230.227 97.8359C231.148 99.3516 231.602 101.188 231.586 103.344H224.156C224.172 102.578 224.055 101.891 223.805 101.281C223.555 100.672 223.164 100.188 222.633 99.8281C222.117 99.4531 221.453 99.2656 220.641 99.2656C219.828 99.2656 219.172 99.4453 218.672 99.8047C218.172 100.164 217.789 100.664 217.523 101.305C217.273 101.93 217.102 102.648 217.008 103.461C216.93 104.273 216.891 105.141 216.891 106.062V106.602C216.891 107.539 216.93 108.422 217.008 109.25C217.102 110.062 217.281 110.781 217.547 111.406C217.812 112.016 218.195 112.5 218.695 112.859C219.195 113.203 219.859 113.375 220.688 113.375ZM248.32 93.6406V99.125H233.039V93.6406H248.32ZM236.25 87.3359H244.148V110.727C244.148 111.398 244.227 111.922 244.383 112.297C244.539 112.656 244.805 112.914 245.18 113.07C245.57 113.211 246.086 113.281 246.727 113.281C247.18 113.281 247.555 113.273 247.852 113.258C248.148 113.227 248.43 113.188 248.695 113.141V118.789C248.023 119.008 247.32 119.172 246.586 119.281C245.852 119.406 245.07 119.469 244.242 119.469C242.555 119.469 241.109 119.203 239.906 118.672C238.719 118.141 237.812 117.305 237.188 116.164C236.562 115.023 236.25 113.539 236.25 111.711V87.3359ZM277.406 107.422H268.922V101.07H277.406C278.562 101.07 279.5 100.875 280.219 100.484C280.938 100.094 281.461 99.5547 281.789 98.8672C282.133 98.1641 282.305 97.375 282.305 96.5C282.305 95.5625 282.133 94.6953 281.789 93.8984C281.461 93.1016 280.938 92.4609 280.219 91.9766C279.5 91.4766 278.562 91.2266 277.406 91.2266H272.016V119H263.789V84.875H277.406C280.141 84.875 282.492 85.375 284.461 86.375C286.445 87.375 287.969 88.75 289.031 90.5C290.094 92.2344 290.625 94.2188 290.625 96.4531C290.625 98.6562 290.094 100.578 289.031 102.219C287.969 103.859 286.445 105.141 284.461 106.062C282.492 106.969 280.141 107.422 277.406 107.422ZM302.414 83V119H294.516V83H302.414ZM301.477 105.453L299.625 105.5C299.625 103.719 299.844 102.078 300.281 100.578C300.719 99.0781 301.344 97.7734 302.156 96.6641C302.969 95.5547 303.945 94.6953 305.086 94.0859C306.227 93.4766 307.492 93.1719 308.883 93.1719C310.133 93.1719 311.273 93.3516 312.305 93.7109C313.352 94.0703 314.25 94.6484 315 95.4453C315.766 96.2422 316.352 97.2812 316.758 98.5625C317.18 99.8438 317.391 101.406 317.391 103.25V119H309.445V103.203C309.445 102.172 309.297 101.375 309 100.812C308.719 100.234 308.312 99.8359 307.781 99.6172C307.25 99.3828 306.602 99.2656 305.836 99.2656C304.914 99.2656 304.164 99.4219 303.586 99.7344C303.008 100.047 302.562 100.484 302.25 101.047C301.953 101.594 301.75 102.242 301.641 102.992C301.531 103.742 301.477 104.562 301.477 105.453ZM330.117 93.6406V119H322.195V93.6406H330.117ZM321.727 87.1016C321.727 85.9766 322.133 85.0547 322.945 84.3359C323.758 83.6172 324.812 83.2578 326.109 83.2578C327.406 83.2578 328.461 83.6172 329.273 84.3359C330.086 85.0547 330.492 85.9766 330.492 87.1016C330.492 88.2266 330.086 89.1484 329.273 89.8672C328.461 90.5859 327.406 90.9453 326.109 90.9453C324.812 90.9453 323.758 90.5859 322.945 89.8672C322.133 89.1484 321.727 88.2266 321.727 87.1016ZM343.336 83V119H335.414V83H343.336ZM347.227 106.578V106.086C347.227 104.227 347.492 102.516 348.023 100.953C348.555 99.375 349.336 98.0078 350.367 96.8516C351.398 95.6953 352.672 94.7969 354.188 94.1562C355.703 93.5 357.453 93.1719 359.438 93.1719C361.438 93.1719 363.195 93.5 364.711 94.1562C366.242 94.7969 367.523 95.6953 368.555 96.8516C369.586 98.0078 370.367 99.375 370.898 100.953C371.43 102.516 371.695 104.227 371.695 106.086V106.578C371.695 108.422 371.43 110.133 370.898 111.711C370.367 113.273 369.586 114.641 368.555 115.812C367.523 116.969 366.25 117.867 364.734 118.508C363.219 119.148 361.469 119.469 359.484 119.469C357.5 119.469 355.742 119.148 354.211 118.508C352.68 117.867 351.398 116.969 350.367 115.812C349.336 114.641 348.555 113.273 348.023 111.711C347.492 110.133 347.227 108.422 347.227 106.578ZM355.125 106.086V106.578C355.125 107.531 355.195 108.422 355.336 109.25C355.477 110.078 355.711 110.805 356.039 111.43C356.367 112.039 356.812 112.516 357.375 112.859C357.938 113.203 358.641 113.375 359.484 113.375C360.312 113.375 361 113.203 361.547 112.859C362.109 112.516 362.555 112.039 362.883 111.43C363.211 110.805 363.445 110.078 363.586 109.25C363.727 108.422 363.797 107.531 363.797 106.578V106.086C363.797 105.164 363.727 104.297 363.586 103.484C363.445 102.656 363.211 101.93 362.883 101.305C362.555 100.664 362.109 100.164 361.547 99.8047C360.984 99.4453 360.281 99.2656 359.438 99.2656C358.609 99.2656 357.914 99.4453 357.352 99.8047C356.805 100.164 356.367 100.664 356.039 101.305C355.711 101.93 355.477 102.656 355.336 103.484C355.195 104.297 355.125 105.164 355.125 106.086ZM388.5 111.875C388.5 111.438 388.352 111.062 388.055 110.75C387.773 110.422 387.273 110.125 386.555 109.859C385.836 109.578 384.828 109.297 383.531 109.016C382.297 108.75 381.133 108.398 380.039 107.961C378.961 107.523 378.016 106.992 377.203 106.367C376.391 105.742 375.75 105 375.281 104.141C374.828 103.281 374.602 102.297 374.602 101.188C374.602 100.109 374.828 99.0938 375.281 98.1406C375.75 97.1719 376.43 96.3203 377.32 95.5859C378.227 94.8359 379.328 94.25 380.625 93.8281C381.922 93.3906 383.398 93.1719 385.055 93.1719C387.336 93.1719 389.305 93.5234 390.961 94.2266C392.617 94.9141 393.891 95.8828 394.781 97.1328C395.688 98.3672 396.141 99.7969 396.141 101.422H388.242C388.242 100.781 388.133 100.234 387.914 99.7812C387.711 99.3281 387.375 98.9844 386.906 98.75C386.438 98.5 385.812 98.375 385.031 98.375C384.484 98.375 383.984 98.4766 383.531 98.6797C383.094 98.8828 382.742 99.1641 382.477 99.5234C382.211 99.8828 382.078 100.305 382.078 100.789C382.078 101.133 382.156 101.445 382.312 101.727C382.484 101.992 382.742 102.242 383.086 102.477C383.43 102.695 383.867 102.898 384.398 103.086C384.93 103.258 385.57 103.414 386.32 103.555C388.023 103.867 389.617 104.312 391.102 104.891C392.586 105.469 393.789 106.289 394.711 107.352C395.648 108.414 396.117 109.844 396.117 111.641C396.117 112.766 395.859 113.805 395.344 114.758C394.828 115.695 394.086 116.523 393.117 117.242C392.148 117.945 390.984 118.492 389.625 118.883C388.266 119.273 386.734 119.469 385.031 119.469C382.609 119.469 380.562 119.039 378.891 118.18C377.219 117.305 375.953 116.211 375.094 114.898C374.25 113.57 373.828 112.227 373.828 110.867H381.188C381.219 111.648 381.406 112.289 381.75 112.789C382.109 113.289 382.586 113.656 383.18 113.891C383.773 114.125 384.461 114.242 385.242 114.242C385.961 114.242 386.555 114.141 387.023 113.938C387.508 113.734 387.875 113.461 388.125 113.117C388.375 112.758 388.5 112.344 388.5 111.875ZM398.836 106.578V106.086C398.836 104.227 399.102 102.516 399.633 100.953C400.164 99.375 400.945 98.0078 401.977 96.8516C403.008 95.6953 404.281 94.7969 405.797 94.1562C407.312 93.5 409.062 93.1719 411.047 93.1719C413.047 93.1719 414.805 93.5 416.32 94.1562C417.852 94.7969 419.133 95.6953 420.164 96.8516C421.195 98.0078 421.977 99.375 422.508 100.953C423.039 102.516 423.305 104.227 423.305 106.086V106.578C423.305 108.422 423.039 110.133 422.508 111.711C421.977 113.273 421.195 114.641 420.164 115.812C419.133 116.969 417.859 117.867 416.344 118.508C414.828 119.148 413.078 119.469 411.094 119.469C409.109 119.469 407.352 119.148 405.82 118.508C404.289 117.867 403.008 116.969 401.977 115.812C400.945 114.641 400.164 113.273 399.633 111.711C399.102 110.133 398.836 108.422 398.836 106.578ZM406.734 106.086V106.578C406.734 107.531 406.805 108.422 406.945 109.25C407.086 110.078 407.32 110.805 407.648 111.43C407.977 112.039 408.422 112.516 408.984 112.859C409.547 113.203 410.25 113.375 411.094 113.375C411.922 113.375 412.609 113.203 413.156 112.859C413.719 112.516 414.164 112.039 414.492 111.43C414.82 110.805 415.055 110.078 415.195 109.25C415.336 108.422 415.406 107.531 415.406 106.578V106.086C415.406 105.164 415.336 104.297 415.195 103.484C415.055 102.656 414.82 101.93 414.492 101.305C414.164 100.664 413.719 100.164 413.156 99.8047C412.594 99.4453 411.891 99.2656 411.047 99.2656C410.219 99.2656 409.523 99.4453 408.961 99.8047C408.414 100.164 407.977 100.664 407.648 101.305C407.32 101.93 407.086 102.656 406.945 103.484C406.805 104.297 406.734 105.164 406.734 106.086ZM434.789 98.5156V128.75H426.891V93.6406H434.25L434.789 98.5156ZM450.352 106.016V106.508C450.352 108.352 450.141 110.062 449.719 111.641C449.297 113.219 448.672 114.594 447.844 115.766C447.016 116.938 445.984 117.852 444.75 118.508C443.531 119.148 442.117 119.469 440.508 119.469C438.992 119.469 437.688 119.133 436.594 118.461C435.5 117.789 434.586 116.859 433.852 115.672C433.117 114.484 432.523 113.125 432.07 111.594C431.617 110.062 431.258 108.445 430.992 106.742V106.109C431.258 104.281 431.617 102.586 432.07 101.023C432.523 99.4453 433.117 98.0703 433.852 96.8984C434.586 95.7266 435.492 94.8125 436.57 94.1562C437.664 93.5 438.969 93.1719 440.484 93.1719C442.094 93.1719 443.508 93.4766 444.727 94.0859C445.961 94.6953 446.992 95.5703 447.82 96.7109C448.664 97.8359 449.297 99.1875 449.719 100.766C450.141 102.344 450.352 104.094 450.352 106.016ZM442.453 106.508V106.016C442.453 105.031 442.383 104.133 442.242 103.32C442.102 102.492 441.875 101.773 441.562 101.164C441.266 100.555 440.867 100.086 440.367 99.7578C439.867 99.4297 439.25 99.2656 438.516 99.2656C437.672 99.2656 436.961 99.3984 436.383 99.6641C435.82 99.9141 435.367 100.305 435.023 100.836C434.695 101.352 434.461 102 434.32 102.781C434.195 103.547 434.141 104.445 434.156 105.477V107.398C434.125 108.586 434.242 109.633 434.508 110.539C434.773 111.43 435.234 112.125 435.891 112.625C436.547 113.125 437.438 113.375 438.562 113.375C439.312 113.375 439.938 113.203 440.438 112.859C440.938 112.5 441.336 112.008 441.633 111.383C441.93 110.742 442.141 110.008 442.266 109.18C442.391 108.352 442.453 107.461 442.453 106.508ZM461.602 83V119H453.703V83H461.602ZM460.664 105.453L458.812 105.5C458.812 103.719 459.031 102.078 459.469 100.578C459.906 99.0781 460.531 97.7734 461.344 96.6641C462.156 95.5547 463.133 94.6953 464.273 94.0859C465.414 93.4766 466.68 93.1719 468.07 93.1719C469.32 93.1719 470.461 93.3516 471.492 93.7109C472.539 94.0703 473.438 94.6484 474.188 95.4453C474.953 96.2422 475.539 97.2812 475.945 98.5625C476.367 99.8438 476.578 101.406 476.578 103.25V119H468.633V103.203C468.633 102.172 468.484 101.375 468.188 100.812C467.906 100.234 467.5 99.8359 466.969 99.6172C466.438 99.3828 465.789 99.2656 465.023 99.2656C464.102 99.2656 463.352 99.4219 462.773 99.7344C462.195 100.047 461.75 100.484 461.438 101.047C461.141 101.594 460.938 102.242 460.828 102.992C460.719 103.742 460.664 104.562 460.664 105.453ZM488.742 116.023L495.305 93.6406H503.789L493.594 122.773C493.375 123.414 493.086 124.102 492.727 124.836C492.367 125.586 491.875 126.297 491.25 126.969C490.625 127.641 489.82 128.188 488.836 128.609C487.867 129.031 486.664 129.242 485.227 129.242C484.461 129.242 483.898 129.203 483.539 129.125C483.195 129.062 482.664 128.945 481.945 128.773V123.125C482.148 123.125 482.32 123.125 482.461 123.125C482.617 123.125 482.789 123.125 482.977 123.125C483.82 123.125 484.492 123.039 484.992 122.867C485.508 122.695 485.898 122.445 486.164 122.117C486.445 121.789 486.664 121.391 486.82 120.922L488.742 116.023ZM487.078 93.6406L492.07 111.383L492.938 119.75H487.641L478.617 93.6406H487.078Z" fill="black"/>
<path d="M1134 0H1348C1356.28 0 1363 6.71573 1363 15V148C1363 156.284 1356.28 163 1348 163H1134V0Z" fill="#F25B5F"/>
<path d="M1234.26 103.786H1262.74V109.357H1234.26V103.786ZM1239.96 114.929H1257.04V120.5H1239.96V114.929ZM1248.5 42.5C1240.95 42.5 1233.71 45.4349 1228.37 50.6592C1223.03 55.8834 1220.03 62.969 1220.03 70.3571C1219.84 74.4057 1220.63 78.4412 1222.34 82.1315C1224.05 85.8219 1226.64 89.0616 1229.88 91.5843C1232.73 94.175 1234.26 95.6514 1234.26 98.2143H1239.96C1239.96 93.0886 1236.8 90.2193 1233.72 87.4614C1231.06 85.4676 1228.94 82.8658 1227.55 79.8838C1226.15 76.9019 1225.53 73.6308 1225.72 70.3571C1225.72 64.4466 1228.12 58.7781 1232.39 54.5988C1236.67 50.4194 1242.46 48.0714 1248.5 48.0714C1254.54 48.0714 1260.33 50.4194 1264.61 54.5988C1268.88 58.7781 1271.28 64.4466 1271.28 70.3571C1271.47 73.6333 1270.84 76.9059 1269.44 79.888C1268.04 82.8701 1265.92 85.4706 1263.25 87.4614C1260.2 90.2471 1257.04 93.0329 1257.04 98.2143H1262.74C1262.74 95.6514 1264.25 94.175 1267.12 91.5564C1270.36 89.0381 1272.94 85.8031 1274.66 82.1176C1276.37 78.4321 1277.16 74.4014 1276.97 70.3571C1276.97 66.6989 1276.24 63.0765 1274.81 59.6967C1273.37 56.3169 1271.28 53.2459 1268.63 50.6592C1265.99 48.0724 1262.85 46.0205 1259.4 44.6205C1255.94 43.2205 1252.24 42.5 1248.5 42.5Z" fill="white"/>
</svg>
